<?xml version="1.0" encoding="UTF-8" standalone="no"?>
<!-- Created with Inkscape (http://www.inkscape.org/) -->

<svg
   width="214.08121mm"
   height="214.08121mm"
   viewBox="0 0 214.08121 214.08121"
   version="1.1"
   id="svg19854"
   xml:space="preserve"
   inkscape:version="1.2 (dc2aedaf03, 2022-05-15)"
   sodipodi:docname="dessin.svg"
   xmlns:inkscape="http://www.inkscape.org/namespaces/inkscape"
   xmlns:sodipodi="http://sodipodi.sourceforge.net/DTD/sodipodi-0.dtd"
   xmlns="http://www.w3.org/2000/svg"
   xmlns:svg="http://www.w3.org/2000/svg"><sodipodi:namedview
     id="namedview19856"
     pagecolor="#ffffff"
     bordercolor="#000000"
     borderopacity="0.25"
     inkscape:showpageshadow="2"
     inkscape:pageopacity="0.0"
     inkscape:pagecheckerboard="0"
     inkscape:deskcolor="#d1d1d1"
     inkscape:document-units="mm"
     showgrid="false"
     inkscape:zoom="0.7885053"
     inkscape:cx="394.41713"
     inkscape:cy="362.71158"
     inkscape:window-width="1920"
     inkscape:window-height="986"
     inkscape:window-x="-11"
     inkscape:window-y="-11"
     inkscape:window-maximized="1"
     inkscape:current-layer="layer1" /><defs
     id="defs19851" /><g
     inkscape:label="Calque 1"
     inkscape:groupmode="layer"
     id="layer1"
     transform="translate(2.0406036,-41.459396)"><rect
       style="fill:#192c53;fill-opacity:1;stroke-width:1.2;stroke-linecap:round;stroke-linejoin:round"
       id="rect20027"
       width="214.08121"
       height="214.08121"
       x="-2.0406036"
       y="41.459396"
       ry="107.0406" /><g
       id="g29583"
       transform="matrix(1.1404857,0,0,1.1404857,-14.750998,-20.862127)"><path
         d="m 149.88206,148.72364 c 0,24.67534 -20.00318,44.67853 -44.67803,44.67853 -2.71074,0 -5.365065,-0.24153 -7.943167,-0.7038 -8.057992,-7.77439 -16.938066,-11.82838 -26.002404,-14.92369 -6.691138,-7.81151 -10.732953,-17.95911 -10.732953,-29.05104 0,-1.15962 0.0442,-2.30886 0.13096,-3.44671 8.006766,-14.8737 24.972004,-34.1177 40.463384,-41.04725 1.34523,-0.1219 2.70728,-0.18417 4.08418,-0.18417 10.27875,0 19.74631,3.47101 27.29551,9.30488 3.15223,7.86492 10.44604,21.32658 16.652,27.2821 0.48008,2.62413 0.73052,5.32844 0.73052,8.09115 z"
         fill="#ff944c"
         id="path27896"
         style="fill:#eaf3ff;fill-opacity:1;stroke-width:4.94932" /><path
         d="m 85.057318,128.45171 c -8.909275,9.50864 -18.67117,14.64307 -24.395854,16.75742 1.686532,-21.6716 18.835291,-39.00388 40.425226,-40.97633 -1.24822,4.29631 -4.657313,12.08179 -16.029372,24.21891 z"
         fill="#fbb8ab"
         id="path27898"
         style="fill:#add0ff;fill-opacity:1;stroke-width:4.94932" /><path
         d="m 127.80907,169.95822 c 9.42648,-10.61779 16.22734,-20.57335 21.29545,-29.57567 -2.06882,-10.95632 -8.13767,-20.49861 -16.63121,-27.05221 -3.15321,7.62909 -11.64625,21.10609 -27.28066,37.05133 -12.358956,12.60444 -23.744872,21.26674 -33.996998,27.31976 6.593091,7.72985 15.77458,13.1845 26.203792,15.02169 11.656646,-6.49401 22.841616,-14.24069 30.409626,-22.7649 z"
         fill="#fbb8ab"
         id="path27900"
         style="fill:#add0ff;fill-opacity:1;stroke-width:4.94932" /><path
         d="m 160.65574,93.660104 c -2.24006,-2.6076 -5.25024,-3.478978 -7.83824,-3.553168 -2.45635,-0.07043 -4.9028,0.539822 -7.05328,1.306819 -4.33115,1.54503 -9.20326,4.373864 -13.91502,7.534304 -3.58529,2.404631 -7.28787,5.145511 -10.87564,7.960191 4.42123,1.66812 8.50789,4.01732 12.13327,6.91955 1.99061,-1.48113 3.97579,-2.8954 5.90998,-4.19282 4.44647,-2.98211 8.2624,-5.09914 11.07065,-6.10103 0.11433,-0.0407 0.22371,-0.0785 0.32913,-0.11363 -0.13611,0.53972 -0.34943,1.22198 -0.68004,2.07287 -1.38532,3.5653 -4.1609,8.22305 -8.07927,13.63499 -7.77044,10.73161 -19.0544,23.10591 -29.24605,33.41832 -9.87983,9.99664 -23.330607,21.91956 -35.122368,30.53187 -5.932357,4.33314 -11.186607,7.63631 -15.214366,9.48142 -0.858658,0.39347 -1.601848,0.69241 -2.234669,0.91464 0.618666,-1.68277 1.789972,-3.9263 3.583557,-6.76523 1.943352,-3.07601 4.337983,-6.42769 6.940435,-10.01248 -2.940986,-3.65854 -5.317651,-7.78974 -6.997797,-12.26195 -0.713693,0.9869 -1.437284,1.98171 -2.165576,2.98246 l -0.352491,0.48454 c -2.89867,3.98421 -5.876281,8.09264 -8.303478,11.9343 -2.361421,3.73773 -4.574115,7.78628 -5.539282,11.63141 -0.995012,3.9644 -0.962693,9.35669 3.647551,13.1355 2.918863,2.3925 6.425211,2.49149 8.921897,2.15246 2.590376,-0.3514 5.287064,-1.31801 7.859276,-2.49644 5.19179,-2.37864 11.259561,-6.27129 17.444729,-10.78903 12.444081,-9.08844 26.412552,-21.48402 36.684872,-31.87809 10.35794,-10.48019 22.17594,-23.39743 30.51703,-34.91747 4.13714,-5.71399 7.66947,-11.42195 9.65068,-16.52019 1.75751,-4.52319 3.35564,-11.336526 -1.07549,-16.494116 z M 59.329107,195.48187 c 0.0045,0.0361 0.0039,0.0569 0.0024,0.0584 -0.0015,0.001 -0.0037,-0.0168 -0.0024,-0.0584 z"
         fill="#fcd53f"
         id="path27902"
         style="fill:#3366cc;fill-opacity:1;stroke-width:4.94932" /></g></g></svg>
