<?xml version="1.0" encoding="UTF-8" standalone="no"?>
<!-- Generator: Adobe Illustrator 27.5.0, SVG Export Plug-In . SVG Version: 6.00 Build 0)  -->

<svg
   version="1.1"
   x="0px"
   y="0px"
   viewBox="0 0 500 500"
   style="enable-background:new 0 0 500 500;"
   xml:space="preserve"
   id="svg3543"
   sodipodi:docname="v2.svg"
   inkscape:version="1.1.2 (0a00cf5339, 2022-02-04)"
   xmlns:inkscape="http://www.inkscape.org/namespaces/inkscape"
   xmlns:sodipodi="http://sodipodi.sourceforge.net/DTD/sodipodi-0.dtd"
   xmlns:xlink="http://www.w3.org/1999/xlink"
   xmlns="http://www.w3.org/2000/svg"
   xmlns:svg="http://www.w3.org/2000/svg"><defs
   id="defs3547"><linearGradient
     id="linearGradient47727"
     inkscape:swatch="solid"><stop
       style="stop-color:#0061c8;stop-opacity:1;"
       offset="0"
       id="stop47725" /></linearGradient></defs><sodipodi:namedview
   id="namedview3545"
   pagecolor="#ffffff"
   bordercolor="#999999"
   borderopacity="1"
   inkscape:pageshadow="0"
   inkscape:pageopacity="0"
   inkscape:pagecheckerboard="0"
   showgrid="false"
   inkscape:zoom="0.837"
   inkscape:cx="58.542413"
   inkscape:cy="200.11947"
   inkscape:window-width="1920"
   inkscape:window-height="1014"
   inkscape:window-x="0"
   inkscape:window-y="34"
   inkscape:window-maximized="1"
   inkscape:current-layer="svg3543" />
<g
   id="Floor">
	<ellipse
   id="Floor_5_"
   style="fill:#F5F5F5;"
   cx="252.905"
   cy="334.639"
   rx="223.658"
   ry="121.594" />
</g>
<g
   id="Shadows"
   transform="matrix(1.0637618,0,0,1.0637618,-5.1975166,1.4883963)">
	<ellipse
   id="Shadow_12_"
   style="fill:#e0e0e0"
   cx="366.05099"
   cy="293.07401"
   rx="46.645"
   ry="26.93" />
	<ellipse
   id="Shadow_11_"
   style="fill:#e0e0e0"
   cx="113.751"
   cy="361.35699"
   rx="46.645"
   ry="26.93" />
</g>
<g
   id="Plants"
   transform="matrix(1.0637618,0,0,1.0637618,-9.1726838,1.4883963)">
	<g
   id="Plants_7_">
		<g
   id="XMLID_15258_">
			<g
   id="XMLID_15277_">
				<path
   id="XMLID_15278_"
   style="fill:#4c97e8;fill-opacity:1"
   d="m 436.136,283.646 -6.736,-3.849 c 0,0 -3.231,-17.805 -0.815,-33.111 3.397,-21.519 18.049,-28.942 23.371,-26.803 5.321,2.139 6.572,8.514 -3.038,20.948 -5.671,7.336 -12.964,22.844 -12.782,42.815 z" />
			</g>
			<g
   id="XMLID_15261_"
   style="opacity:0.1">
				
			</g>
			<g
   id="XMLID_15259_">
				<path
   id="XMLID_15260_"
   style="fill:#ffffff"
   d="m 432.935,274.885 c 0.022,0.001 0.044,-10e-4 0.067,-0.003 0.264,-0.029 0.454,-0.266 0.426,-0.529 -2.198,-20.219 6.542,-42.047 15.899,-50.674 0.195,-0.179 0.207,-0.484 0.027,-0.679 -0.18,-0.193 -0.484,-0.207 -0.679,-0.027 -9.528,8.785 -18.433,30.967 -16.202,51.484 0.025,0.241 0.226,0.421 0.462,0.428 z" />
			</g>
		</g>
		<g
   id="XMLID_15251_">
			<g
   id="XMLID_15256_">
				<path
   id="XMLID_15257_"
   style="fill:#006bde;fill-opacity:1"
   d="m 454.826,294.443 c 1.064,0.611 3.258,-0.725 4.099,-1.289 1.439,-0.965 2.604,-2.332 3.378,-3.878 0.901,-1.799 1.128,-3.727 0.846,-5.717 -0.146,-1.032 -0.435,-2.038 -0.723,-3.04 -0.283,-0.984 -0.566,-1.967 -0.848,-2.951 -0.279,-0.971 -0.561,-1.975 -0.433,-2.976 0.258,-2.018 2.05,-3.432 3.678,-4.651 1.801,-1.349 3.676,-3.129 3.666,-5.558 -0.008,-1.875 -0.979,-3.616 -2.141,-5.087 -1.162,-1.471 -2.54,-2.771 -3.59,-4.324 -0.756,-1.118 -1.346,-2.431 -1.223,-3.775 0.076,-0.835 0.423,-1.622 0.822,-2.359 0.858,-1.582 1.99,-3.031 2.581,-4.731 0.592,-1.699 0.508,-3.813 -0.819,-5.029 -1.089,-0.998 -2.707,-1.138 -4.181,-1.04 -1.364,0.09 -2.695,0.705 -3.888,1.369 -3.857,2.145 -6.059,6.713 -10.152,8.364 -1.579,0.637 -3.309,0.776 -4.954,1.211 -1.646,0.435 -3.324,1.275 -4.086,2.798 -1.503,3.001 1.286,6.7 0.23,9.885 -0.935,2.819 -3.674,3.898 -5.212,6.439 -0.673,1.111 -0.828,2.396 -0.719,3.691 0.184,2.191 0.505,3.799 1.556,6.236 0.869,2.014 3.423,5.618 3.423,5.618 0.064,0.06 18.527,10.701 18.69,10.794 z" />
			</g>
			<g
   id="XMLID_15254_">
				<path
   id="XMLID_15255_"
   style="fill:#ffffff"
   d="m 443.891,288.617 c 0.007,0 0.013,0 0.013,0 0.272,-0.011 0.478,-0.235 0.467,-0.5 -0.794,-19.069 8.191,-40.121 14.725,-46.237 0.193,-0.181 0.204,-0.485 0.022,-0.679 -0.182,-0.193 -0.485,-0.203 -0.679,-0.023 -6.665,6.239 -15.832,27.641 -15.029,46.978 0.012,0.259 0.225,0.461 0.481,0.461 z" />
			</g>
			<g
   id="XMLID_15252_">
				<path
   id="XMLID_15253_"
   style="fill:#ffffff"
   d="m 446.748,266.089 c 0.047,0 0.095,-0.007 0.142,-0.022 6.126,-1.894 13.762,-2.228 13.838,-2.231 0.266,-0.011 0.471,-0.236 0.461,-0.5 -0.011,-0.264 -0.212,-0.474 -0.5,-0.461 -0.078,0.004 -7.835,0.342 -14.082,2.274 -0.253,0.078 -0.396,0.347 -0.317,0.6 0.063,0.207 0.253,0.34 0.458,0.34 z" />
			</g>
		</g>
	</g>
	<g
   id="Plants_8_">
		<g
   id="XMLID_15387_">
			<g
   id="XMLID_15392_">
				<path
   id="XMLID_15393_"
   style="fill:#006bde;fill-opacity:1"
   d="m 48.425,305.306 6.703,-3.87 c 0,0 3.252,-17.804 0.836,-33.11 -3.397,-21.519 -18.049,-28.942 -23.371,-26.803 -5.321,2.139 -6.572,8.514 3.038,20.948 5.671,7.337 12.976,22.865 12.794,42.835 z" />
			</g>
			<g
   id="XMLID_15390_"
   style="opacity:0.1">
				
			</g>
			<g
   id="XMLID_371_">
				<path
   id="XMLID_375_"
   style="fill:#ffffff"
   d="m 52.021,304.281 c -0.009,0 -0.018,0 -0.027,-0.001 -0.276,-0.015 -0.487,-0.25 -0.473,-0.525 1.582,-29.964 -2.642,-47.068 -14.124,-57.194 -0.207,-0.183 -0.227,-0.499 -0.044,-0.706 0.183,-0.206 0.5,-0.227 0.705,-0.044 11.736,10.35 16.062,27.694 14.462,57.997 -0.014,0.266 -0.235,0.473 -0.499,0.473 z" />
			</g>
		</g>
		<g
   id="XMLID_370_">
			<path
   id="XMLID_15396_"
   style="fill:#4c97e8;fill-opacity:1"
   d="m 50.462,304.13 c 0.143,-6.443 -3.613,-27.768 -16.232,-35.527 -12.619,-7.759 -18.754,1.903 -13.638,7.765 3.746,4.292 10.728,7.394 17.293,16.261 4.514,6.097 7.091,14.668 7.091,14.668 z" />
			<g
   id="XMLID_373_">
				<path
   id="XMLID_374_"
   style="fill:#ffffff"
   d="m 48.197,306.627 c -0.259,0 -0.479,-0.2 -0.498,-0.463 -1.213,-16.26 -10.444,-30.85 -22.449,-35.479 -0.258,-0.1 -0.386,-0.389 -0.287,-0.646 0.099,-0.258 0.389,-0.386 0.646,-0.287 12.353,4.764 21.846,19.706 23.086,36.338 0.021,0.275 -0.186,0.516 -0.461,0.536 -0.012,0.001 -0.025,0.001 -0.037,0.001 z" />
			</g>
		</g>
	</g>
</g>
<g
   id="Characters"
   transform="matrix(1.0637618,0,0,1.0637618,-4.1625261,1.4883963)">
	<g
   id="Character_2">
		<g
   id="Character_boy_1_">
			<g
   id="XMLID_15357_">
				<g
   id="XMLID_15367_">
					<path
   id="XMLID_15368_"
   style="fill:#ffa8a7"
   d="m 302.478,114.447 c 1.523,1.258 3.262,1.903 5.265,3.846 1.764,1.711 2.522,2.386 4.65,3.23 2.307,0.915 4.48,0.644 10.883,-0.38 7.833,-1.253 11.204,-2.569 14.583,-5.452 3.951,-3.371 12.789,-13.536 17.062,-17.529 4.518,-4.222 10.73,-2.591 10.73,-2.591 0,0 -2.56,9.159 -8.477,17.581 -3.423,4.872 -9.815,9.533 -12.707,11.94 -4.626,3.85 -7.086,5.372 -17.25,6.136 -7.671,0.577 -8.689,0.764 -14.965,0.578 -2.269,-0.067 -3.684,-0.09 -7.398,-0.4 -1.841,-0.153 -3.337,-0.385 -4.77,-0.832 -1.82,-0.568 -3.396,-0.909 -4.983,-1.972 -1.998,-1.339 -3.711,-3.15 -4.739,-5.325 -0.565,-1.196 -0.921,-2.51 -0.883,-3.833 0.038,-1.323 0.491,-2.654 1.382,-3.633 0.181,-0.199 0.387,-0.387 0.642,-0.47 0.461,-0.149 0.951,0.076 1.382,0.297 2.41,1.234 4.824,2.925 7.34,3.895 2.126,0.819 3.741,1.104 3.584,0.675 -0.158,-0.428 -1.441,-0.823 -2.759,-2.309 -1.26,-1.42 -1.65,-3.564 -0.798,-4.208 0.853,-0.641 0.704,-0.503 2.226,0.756 z" />
				</g>
				<path
   id="XMLID_15366_"
   style="fill:#e0e0e0"
   d="m 367.472,95.537 c 0,0 -3.82,-1.98 -7.774,-0.844 -3.953,1.136 -7.121,3.721 -10.891,7.767 -3.77,4.046 -10.133,10.592 -10.133,10.592 0,0 3.132,7.93 10.172,10.748 l 14.759,-13.654 z" />
			</g>
			<g
   id="Character_boy_2_">
				<g
   id="XMLID_15314_">
					<rect
   id="XMLID_15356_"
   x="380.207"
   y="276.74301"
   style="fill:#ffa8a7"
   width="8.948"
   height="15.317" />
					<polygon
   id="XMLID_15355_"
   style="fill:#ffa8a7"
   points="355.452,280.907 355.005,264.697 364.395,264.39 364.395,280.6 " />
					<path
   id="XMLID_15341_"
   style="fill:#37474f"
   d="m 392.966,162.366 c 0,8.544 -1.51,58.243 -1.51,58.243 0.208,2.459 2.575,6.83 2.759,15.686 0.267,12.843 -4.678,48.106 -4.678,48.106 0,0 -4.343,2.538 -9.962,0.197 0,0 -4.058,-47.801 -5.662,-60.513 -1.399,-11.094 -3.773,-41.234 -3.773,-41.234 l -4.213,36.219 c 0,0 1.65,6.617 1.109,14.22 -0.418,5.88 -2.075,42.289 -2.075,42.289 0,0 -4.212,2.858 -10.331,0.79 0,0 -6.311,-51.904 -6.414,-57.299 -0.118,-6.151 2.338,-68.936 2.338,-68.936 z" />
					<path
   id="XMLID_15340_"
   style="fill:#f0f0f0"
   d="m 387.088,99.509 c 1.967,0.88 3.522,2.482 4.312,4.488 0.703,1.786 1.31,4.318 1.31,7.733 v 17.532 l 0.256,33.104 c -12.843,6.769 -29.17,7.222 -42.871,-2.784 0,0 0.765,-42.61 0.765,-49.58 0,-0.315 0.008,-0.634 0.024,-0.957 0.498,-9.955 10.3,-16.787 19.953,-14.304 l 8.109,2.086 z" />
					<g
   id="XMLID_15318_">
						<g
   id="XMLID_15326_">
							
								<circle
   id="XMLID_15337_"
   transform="matrix(0.9732,-0.2298,0.2298,0.9732,-5.6303,85.446)"
   style="fill:#27debf"
   cx="364.11301"
   cy="66.901001"
   r="12.297" />
							
								<circle
   id="XMLID_2_"
   transform="matrix(0.9732,-0.2298,0.2298,0.9732,-5.6303,85.446)"
   style="opacity:1;fill:#263238;fill-opacity:1"
   cx="364.11301"
   cy="66.901001"
   r="12.297" />
							<path
   id="XMLID_15336_"
   style="fill:#27debf"
   d="m 385.369,75.644 c 0,0 -1.992,9.362 -2.792,10.9 -0.799,1.538 -2.45,1.975 -2.45,1.975 l 0.139,-6.586 z" />
							<path
   id="XMLID_5_"
   style="opacity:1;fill:#263238;fill-opacity:1"
   d="m 385.369,75.644 c 0,0 -1.992,9.362 -2.792,10.9 -0.799,1.538 -2.45,1.975 -2.45,1.975 l 0.139,-6.586 z" />
							<path
   id="XMLID_15335_"
   style="fill:#27debf"
   d="m 382.868,62.233 c 0,0 2.146,-0.368 3.819,1.343 1.64,1.677 0.724,6.927 -1.318,12.069 l -3.754,0.431 z" />
							<path
   id="XMLID_3_"
   style="opacity:1;fill:#263238;fill-opacity:1"
   d="m 382.868,62.233 c 0,0 2.146,-0.368 3.819,1.343 1.64,1.677 0.724,6.927 -1.318,12.069 l -3.754,0.431 z" />
							<path
   id="XMLID_15334_"
   style="fill:#ffa8a7"
   d="m 380.49,76.078 c 0.753,0.45 1.826,-0.996 2.754,-1.968 0.928,-0.971 3.958,-2.298 5.47,0.887 1.54,3.246 -1.334,7.534 -3.72,8.283 -4.111,1.29 -4.728,-1.347 -4.728,-1.347 l -0.304,15.282 v 0 c -5.111,6.553 -19.296,6 -13.385,-0.846 l 0.012,-4.513 c 0,0 -3.725,0.565 -5.542,0.284 -3.023,-0.467 -4.925,-2.853 -5.842,-6.125 -1.473,-5.256 -2.032,-9.501 -0.783,-19.838 1.37,-11.33 14.548,-11.448 21.665,-6.969 7.117,4.481 4.403,16.87 4.403,16.87 z" />
							<path
   id="XMLID_15333_"
   style="fill:#27debf"
   d="m 380.49,77.345 c 0.379,0.007 1.818,-2.381 2.755,-3.234 1.298,-1.181 -0.376,-11.878 -0.376,-11.878 0,0 1.247,-2.659 -1.253,-5.41 -1.778,-1.957 -4.751,-2.175 -9.825,-2.972 -2.663,-0.418 -6.699,-1.164 -9.357,-1.658 -3.175,-0.59 -5.803,-1.215 -8.044,0.733 -1.745,1.516 -2.496,4.195 -1.557,6.307 0.22,0.495 0.539,0.943 0.902,1.346 0.643,0.715 1.37,1.277 2.285,1.574 0,0 1.384,1.228 6.2,1.815 4.816,0.586 12.316,-0.113 13.342,-0.253 1.396,-0.191 1.694,1.162 2.447,4.86 0.661,3.244 1.209,8.745 2.481,8.77 z" />
							<path
   id="XMLID_1_"
   style="opacity:1;fill:#263238;fill-opacity:1"
   d="m 380.49,77.345 c 0.379,0.007 1.818,-2.381 2.755,-3.234 1.298,-1.181 0.89341,-8.443113 0.89341,-8.443113 0,0 -0.0224,-6.093887 -2.52241,-8.844887 -1.778,-1.957 -4.751,-2.175 -9.825,-2.972 -2.663,-0.418 -6.699,-1.164 -9.357,-1.658 -3.175,-0.59 -5.803,-1.215 -8.044,0.733 -1.745,1.516 -2.496,4.195 -1.557,6.307 0.22,0.495 0.539,0.943 0.902,1.346 0.643,0.715 1.37,1.277 2.285,1.574 0,0 1.384,1.228 6.2,1.815 4.816,0.586 12.316,-0.113 13.342,-0.253 1.396,-0.191 1.694,1.162 2.447,4.86 0.661,3.244 1.209,8.745 2.481,8.77 z"
   sodipodi:nodetypes="cccccccscccccc" />
							<path
   id="XMLID_15332_"
   style="fill:#27debf"
   d="m 382.861,63.064 4.551,-2.443 c -0.646,-1.304 -2.188,-1.814 -3.445,-1.139 -1.257,0.675 -1.752,2.279 -1.106,3.582 z" />
							<path
   id="XMLID_4_"
   style="opacity:1;fill:#263238;fill-opacity:1;stroke:#263238;stroke-opacity:1"
   d="m 382.861,63.064 4.551,-2.443 c -0.646,-1.304 -2.188,-1.814 -3.445,-1.139 -1.257,0.675 -1.752,2.279 -1.106,3.582 z" />
							<path
   id="XMLID_15328_"
   style="fill:#f28f8f"
   d="m 366.589,91.858 c 0,0 6.749,-1.359 9.108,-2.614 1.579,-0.839 2.88,-2.294 3.262,-3.227 0,0 -0.442,2.002 -1.853,3.806 -1.725,2.206 -10.517,3.83 -10.517,3.83 z" />
						</g>
						<g
   id="XMLID_15319_">
							<path
   id="XMLID_15325_"
   style="fill:#263238"
   d="m 366.919,74.391 c 0,0.776 0.606,1.404 1.353,1.401 0.747,-0.002 1.352,-0.633 1.352,-1.409 0,-0.776 -0.605,-1.403 -1.352,-1.401 -0.748,0.002 -1.353,0.633 -1.353,1.409 z" />
							<path
   id="XMLID_15324_"
   style="fill:#263238"
   d="m 368.353,69.285 2.893,1.597 c 0.427,-0.831 0.125,-1.863 -0.674,-2.303 -0.799,-0.442 -1.792,-0.125 -2.219,0.706 z" />
							<path
   id="XMLID_15323_"
   style="fill:#f28f8f"
   d="m 367.2,83.733 -3.087,1.158 c 0.305,0.885 1.244,1.343 2.097,1.023 0.853,-0.319 1.296,-1.296 0.99,-2.181 z" />
							<path
   id="XMLID_15322_"
   style="fill:#263238"
   d="m 355.251,70.411 2.638,-2.032 c -0.538,-0.756 -1.565,-0.913 -2.293,-0.352 -0.729,0.561 -0.883,1.628 -0.345,2.384 z" />
							<path
   id="XMLID_15321_"
   style="fill:#263238"
   d="m 356.063,74.006 c 0,0.776 0.605,1.403 1.353,1.401 0.747,-0.002 1.352,-0.633 1.352,-1.409 0,-0.776 -0.606,-1.403 -1.352,-1.401 -0.747,0.002 -1.353,0.633 -1.353,1.409 z" />
							<polygon
   id="XMLID_15320_"
   style="fill:#f28f8f"
   points="358.263,79.409 362.953,72.723 362.509,80.857 " />
						</g>
					</g>
					<path
   id="XMLID_15317_"
   style="fill:#263238"
   d="m 380.207,287.643 v -1.28 c -0.856,0.373 -2.845,7.962 -6.395,11.201 -2.822,2.574 -6.673,5.548 -7.652,8.418 -1.019,2.985 5.362,4.633 7.998,4.166 3.064,-0.543 8.374,-2.7 9.707,-4.699 1.333,-2 1.957,-4.95 3.04,-6.416 1.083,-1.466 3.58,-3.102 4.166,-4.798 0.322,-0.932 -0.06,-2.973 -0.512,-4.697 -0.415,-1.582 -0.864,-3.322 -1.404,-3.173 -10e-4,0.193 0,0.976 0,0.976 -0.65,0.72 -2.447,1.434 -4.474,1.512 -1.309,0.048 -4.485,-0.211 -4.474,-1.21 z" />
					<path
   id="XMLID_15316_"
   style="fill:#263238"
   d="m 355.358,278.148 c -0.464,0.016 -0.843,0.672 -1.868,1.781 -1.239,1.341 -3.264,2.787 -5.263,3.787 -3.35,1.677 -9.864,4.257 -12.812,5.585 -1.842,0.83 -1.755,3.054 0.148,4.32 1.904,1.266 6.5,2.178 12.019,0.944 3.007,-0.672 6.92,-3.449 9.398,-3.299 2.477,0.15 7.112,0.114 8.941,-1.146 1.828,-1.26 1.097,-3.952 0.58,-6.265 -0.564,-2.524 -1.269,-6.461 -2.105,-6.289 v 0.87 c -1.076,1.629 -6.627,2.292 -8.99,1.093 z" />
					<path
   id="XMLID_15315_"
   style="fill:#263238"
   d="m 370.14,182.852 c 0,0 -7.152,-2.015 -12.46,-7.144 0,0 2.404,4.501 9.554,8.691 l -0.953,31.628 z" />
				</g>
			</g>
		</g>
	</g>
	<g
   id="Character_1">
		<g
   id="XMLID_15030_">
			<path
   id="XMLID_15037_"
   style="fill:#263238"
   d="M 125.832,181.284 H 86.826 v -38.037 c 0,-9.891 8.018,-17.909 17.909,-17.909 h 3.189 c 9.891,0 17.909,8.018 17.909,17.909 v 38.037 z" />
		</g>
		<g
   id="XMLID_15022_">
			<path
   id="XMLID_15028_"
   style="fill:#ffa8a7"
   d="m 103.446,368.068 c -0.858,-0.766 -1.721,-1.513 -2.504,-2.228 -2.431,-2.217 -4.283,-5.977 -5.347,-8.543 -0.608,-1.465 -0.92,-3.028 -0.92,-4.614 v -4.997 h -8.768 v 8.134 0 0.001 0.217 l 0.044,0.022 c 0.422,1.822 4.446,6.669 6.732,9.829 1.532,2.119 4.444,4.814 7.923,5.278 3.297,0.441 4.983,-0.599 2.84,-3.099 z" />
			<path
   id="XMLID_15026_"
   style="fill:#ffa8a7"
   d="m 128.778,354.734 c 0.245,-0.145 0.462,-0.332 0.629,-0.562 0.683,-0.941 0.142,-1.454 -0.354,-2.199 -0.642,-0.966 -1.063,-2.208 -1.506,-3.276 -0.407,-0.98 -0.939,-2.781 -0.939,-2.781 0,0 0.02,-1.309 0.02,-1.833 v -4.997 h -8.768 c 0,0 0,8.134 0,8.136 v 0.217 l 0.044,0.022 c 0.451,1.946 2.221,3.827 3.383,5.378 0.901,1.203 3.218,1.813 4.62,2.114 0.619,0.133 1.259,0.22 1.885,0.124 0.345,-0.053 0.687,-0.166 0.986,-0.343 z" />
			<path
   id="XMLID_15025_"
   style="fill:#37474f"
   d="m 87.651,219.861 c -6.798,14.847 0.245,67.146 0.245,67.146 -0.204,2.409 -2.959,7.15 -3.985,17.754 -1.213,12.529 1.903,43.988 1.903,43.988 0,0 4.06,2.655 8.861,0.352 0,0 8.356,-47.381 9.928,-59.838 1.371,-10.872 4.004,-34.776 4.004,-34.776 l 5.233,34.76 c 0,0 -1.92,6.09 -2.369,10.73 -0.71,7.327 6.39,41.443 6.39,41.443 0,0 3.025,1.11 8.768,0.264 0,0 2.511,-45.273 3.173,-54.1 1.112,-14.824 -0.578,-61.121 -3.297,-69.896 z" />
			<path
   id="XMLID_15024_"
   style="fill:#263238"
   d="m 108.606,254.487 2.207,-13.79 c 0,0 9.336,-1.934 13.571,-5.915 0,0 -4.442,5.526 -11.041,7.336 l -2.479,10.617 2.219,31.491 z" />
			<path
   id="XMLID_15236_"
   style="fill:#263238"
   d="m 94.7,354.499 -0.012,-1.266 c 0.841,0.366 2.807,7.83 6.295,11.011 2.772,2.529 6.555,5.45 7.516,8.269 1.001,2.932 -5.267,4.551 -7.857,4.092 -3.01,-0.533 -8.226,-2.652 -9.536,-4.617 -1.309,-1.964 -1.922,-4.863 -2.987,-6.302 -1.064,-1.44 -3.517,-3.047 -4.092,-4.713 -0.316,-0.915 0.059,-2.92 0.503,-4.614 0.407,-1.554 0.849,-3.263 1.38,-3.117 0.001,0.19 0,0.958 0,0.958 0.638,0.707 2.403,1.409 4.394,1.485 1.286,0.05 4.406,-0.205 4.396,-1.186 z" />
			<path
   id="XMLID_15235_"
   style="fill:#263238"
   d="m 126.608,345.916 c 0.456,0.016 0.947,0.707 1.953,1.797 1.217,1.317 3.207,2.737 5.171,3.72 3.291,1.647 9.69,4.182 12.586,5.487 1.809,0.815 1.724,3 -0.146,4.244 -1.87,1.243 -6.385,2.14 -11.807,0.927 -2.953,-0.661 -6.798,-3.388 -9.232,-3.241 -2.433,0.147 -6.987,0.112 -8.783,-1.126 -1.796,-1.238 -1.077,-3.882 -0.57,-6.154 0.554,-2.48 1.247,-6.347 2.068,-6.178 v 0.855 c 1.057,1.6 6.51,2.251 8.831,1.074 z" />
		</g>
		<g
   id="XMLID_14886_">
			<path
   id="XMLID_15021_"
   style="fill:#ffa8a7"
   d="m 114.152,167.877 c 0,0 6.584,-0.966 11.155,4.999 3.51,4.58 12.753,23.342 12.753,23.342 0,0 20.289,-1.355 21.263,-2.529 0.974,-1.174 0.426,-3.549 0.158,-4.856 -0.269,-1.307 -0.711,-4.21 -1.002,-5.026 -0.509,-1.423 1.597,-1.039 2.838,0.291 1.27,1.363 1.792,3.932 2.412,4.379 0.619,0.447 5.328,-4.97 7.615,-7.583 2.285,-2.614 3.357,-4.443 4.889,-3.365 1.104,0.777 0.395,2.329 -1.243,4.569 -1.639,2.239 -1.878,2.48 -2.116,2.966 -0.196,0.4 0.408,0.721 0.648,0.936 0.443,0.397 1.232,1.047 1.287,1.668 0.03,0.339 -0.032,0.688 0.062,1.015 0.214,0.745 1.136,1.095 1.396,1.825 0.188,0.528 -0.019,1.12 0.087,1.67 0.068,0.355 0.264,0.676 0.328,1.031 0.125,0.698 -0.276,1.38 -0.733,1.923 -1.606,1.91 -3.801,2.641 -5.905,3.806 -1.75,0.968 -3.557,1.392 -5.572,2.288 -2.015,0.896 -26.678,7.28 -30.377,5.237 -3.699,-2.042 -17.84,-24.27 -17.84,-24.27 -5.512,-9.132 -2.103,-14.316 -2.103,-14.316 z" />
			<path
   id="XMLID_15020_"
   style="fill:#006bde;fill-opacity:1"
   d="m 99.642,168.282 v 0 c -8.714,0.6 -9.326,4.808 -11.507,9.411 -1.66,3.504 -1.113,7.684 0.154,11.349 l 5.507,17.452 c 0,0 -2.844,6.873 -6.145,13.367 15.24,8.506 34.27,4.035 38.853,-2.173 0.194,-1.317 -0.984,-11.61 -1.709,-18.333 2.684,-6.733 3.392,-11.001 2.26,-15.452 -2.102,-8.262 -10.263,-16.311 -13.874,-16.018 z" />
			<g
   id="XMLID_14934_">
				<path
   id="XMLID_15019_"
   style="fill:#263238"
   d="m 85.882,133.391 2.638,4.24 c -1.169,0.782 -2.708,0.467 -3.437,-0.704 -0.728,-1.171 -0.37,-2.754 0.799,-3.536 z" />
				<g
   id="XMLID_15017_">
					<path
   id="XMLID_15018_"
   style="fill:#ffa8a7"
   d="m 119.425,133.225 c 2.06,1.217 4.606,6.399 4.355,17.261 -0.213,9.206 -3.197,11.48 -4.695,12.135 -1.498,0.655 -4.388,0.257 -7.197,-0.212 v 5.525 c 0,0 3.882,4.51 3.638,7.043 -0.244,2.533 -5.606,3.132 -9.24,0.657 -3.633,-2.475 -5.962,-6.242 -5.962,-6.242 v -13.355 c 0,0 -1.897,2.533 -4.999,0.473 -3.102,-2.06 -3.22,-7.159 -1.417,-8.99 1.803,-1.831 5.691,-1.251 6.415,1.278 0,0 4.48,0.163 10.446,-3.114 5.968,-3.275 8.26,-8.889 8.656,-12.459 z" />
				</g>
				<g
   id="XMLID_15015_">
					<path
   id="XMLID_15016_"
   style="fill:#263238"
   d="m 112.471,148.174 c 0.033,0.663 -0.457,1.226 -1.096,1.256 -0.639,0.03 -1.183,-0.483 -1.217,-1.146 -0.033,-0.663 0.457,-1.226 1.096,-1.256 0.639,-0.031 1.184,0.482 1.217,1.146 z" />
				</g>
				<g
   id="XMLID_15013_">
					<path
   id="XMLID_15014_"
   style="fill:#f28f8f"
   d="m 113.811,155.977 2.689,0.858 c -0.223,0.77 -1.006,1.201 -1.749,0.965 -0.742,-0.237 -1.163,-1.053 -0.94,-1.823 z" />
				</g>
				<g
   id="XMLID_15005_">
					<path
   id="XMLID_15006_"
   style="fill:#263238"
   d="m 121.963,144.619 -2.342,-1.624 c 0.427,-0.669 1.298,-0.848 1.945,-0.399 0.647,0.449 0.824,1.354 0.397,2.023 z" />
				</g>
				<g
   id="XMLID_14940_">
					<path
   id="XMLID_15003_"
   style="fill:#263238"
   d="m 121.423,147.337 c 0.033,0.663 -0.457,1.226 -1.096,1.256 -0.638,0.03 -1.183,-0.483 -1.216,-1.146 -0.033,-0.663 0.457,-1.226 1.096,-1.256 0.638,-0.031 1.183,0.482 1.216,1.146 z" />
				</g>
				<g
   id="XMLID_14938_">
					<polygon
   id="XMLID_14939_"
   style="fill:#f28f8f"
   points="119.62,152.507 115.769,146.674 115.953,153.643 " />
				</g>
				<g
   id="XMLID_14935_">
					<path
   id="XMLID_14937_"
   style="fill:#f28f8f"
   d="m 111.888,162.411 c -2.961,-0.388 -9.051,-2.138 -10.001,-4.546 0,0 0.316,1.513 2.136,3.073 1.819,1.559 7.865,3.316 7.865,3.316 z" />
				</g>
			</g>
			<path
   id="XMLID_14933_"
   style="opacity:0.1"
   d="m 103.54,221.509 c -4.148,-0.981 -8.361,-5.518 -6.456,-9.948 0.532,-1.236 1.478,-2.29 2.651,-2.95 1.019,-0.574 1.821,-0.332 2.766,0.295 -1.976,-1.311 -5.426,-7.674 -5.889,-9.998 l -2.352,-7.834 c 0,0 -0.412,-2.434 0.471,-5.341 l -6.125,-7.085 c 0,0 -0.44,0.306 -1.132,0.787 -0.955,3.068 -0.246,6.534 0.816,9.607 l 5.507,17.452 c 0,0 -2.843,6.873 -6.145,13.367 11.232,6.269 24.515,5.486 32.563,2.157 -6.358,0.986 -12.248,0.539 -16.675,-0.509 z" />
		</g>
	</g>
	<g
   id="XMLID_14773_">
		<g
   id="XMLID_15004_">
			<path
   id="XMLID_15036_"
   style="fill:#27debf"
   d="m 175.521,395.488 -19.818,-11.442 c -2.063,-1.218 -3.213,-4.274 -3.21,-8.215 l -0.082,-86.926 19.969,11.529 -0.08,87.207 c 0.003,3.837 1.239,6.582 3.221,7.847 z" />
			<path
   id="XMLID_15002_"
   style="opacity:1;fill:#4c97e8;fill-opacity:1;fill-rule:nonzero;stroke-width:0;stroke-miterlimit:4;stroke-dasharray:none"
   d="m 175.521,395.488 -19.818,-11.442 c -2.063,-1.218 -3.213,-4.274 -3.21,-8.215 l -0.082,-86.926 28.63089,5.55528 L 172.3,387.641 c 0.003,3.837 1.239,6.582 3.221,7.847 z"
   sodipodi:nodetypes="ccccccc" />
			<path
   id="XMLID_15082_"
   style="fill:#006bde;fill-opacity:1"
   d="m 175.662,395.569 -0.14,-0.081 c -1.983,-1.265 -3.218,-4.01 -3.221,-7.848 l 0.08,-87.207 -19.969,-11.529 17.272,-10.077 0.155,-0.084 0.049,-0.039 0.032,-0.008 2.45,-1.419 0.006,-0.01 2.765,-1.919 c 0.038,-0.019 0.081,-0.047 0.108,-0.071 0.043,-0.029 0.086,-0.057 0.114,-0.081 0.151,-0.1 0.267,-0.207 0.402,-0.303 l 0.157,-0.11 c 0.163,-0.12 0.316,-0.246 0.478,-0.366 0.163,-0.12 0.315,-0.246 0.462,-0.361 0.131,-0.111 0.262,-0.223 0.388,-0.324 l 0.153,-0.126 0.137,-0.121 c 0.261,-0.197 0.507,-0.415 0.748,-0.624 0.137,-0.122 0.258,-0.239 0.379,-0.356 l 0.148,-0.142 c 0.467,-0.439 0.936,-0.903 1.369,-1.375 l 0.154,-0.151 c 0.178,-0.191 0.349,-0.373 0.517,-0.57 0.078,-0.089 0.162,-0.187 0.229,-0.282 0.072,-0.079 0.15,-0.167 0.212,-0.252 l 0.056,-0.074 0.062,-0.084 0.101,-0.129 c 0.179,-0.217 0.364,-0.445 0.533,-0.668 0.142,-0.199 0.289,-0.408 0.421,-0.613 l 0.107,-0.139 0.035,-0.06 c 0.192,-0.263 0.364,-0.538 0.531,-0.803 0.155,-0.245 0.288,-0.475 0.427,-0.716 l 0.052,-0.09 c 0.111,-0.216 0.227,-0.417 0.339,-0.633 0.058,-0.1 0.121,-0.211 0.169,-0.317 0.14,-0.266 0.271,-0.539 0.391,-0.817 l 0.017,-0.03 c 0.073,-0.172 0.155,-0.338 0.228,-0.51 0.083,-0.166 0.155,-0.338 0.218,-0.516 0.065,-0.136 0.126,-0.288 0.177,-0.446 0.055,-0.142 0.116,-0.294 0.171,-0.436 0.125,-0.356 0.24,-0.717 0.355,-1.078 l 0.006,-0.01 c 0.09,-0.295 0.186,-0.601 0.272,-0.912 0.013,-0.046 0.021,-0.082 0.034,-0.128 0.098,-0.331 0.175,-0.674 0.247,-1.007 l 0.022,-0.108 c 0.057,-0.261 0.12,-0.532 0.173,-0.809 l 0.006,-0.01 c 0.075,-0.385 0.153,-0.821 0.204,-1.232 l 0.038,-0.205 c 0.016,-0.098 0.027,-0.185 0.043,-0.283 0.007,-0.036 0.015,-0.072 0.012,-0.113 0.01,-0.088 0.027,-0.185 0.043,-0.283 0.055,-0.489 0.095,-0.974 0.133,-1.434 l 0.018,-0.217 c 0.011,-0.181 0.027,-0.372 0.038,-0.553 l 0.006,-0.01 c 0.028,-0.719 0.051,-1.454 0.064,-2.195 l 0.001,-0.026 -0.001,-0.068 c -0.008,-0.218 -0.007,-0.405 -0.014,-0.623 l -0.006,-0.244 -0.003,-0.296 c -0.006,-0.244 -0.006,-0.498 -0.018,-0.732 -0.001,-0.067 -0.008,-0.125 -0.009,-0.192 -0.007,-0.057 -0.008,-0.125 -0.015,-0.182 l -0.007,-0.151 -0.008,-0.125 c -0.03,-0.365 -0.05,-0.724 -0.081,-1.063 l 0.006,-0.01 -0.007,-0.057 c -0.033,-0.313 -0.072,-0.616 -0.107,-0.904 -0.207,-1.563 -0.503,-2.856 -0.824,-3.991 -0.232,-0.802 -0.479,-1.533 -0.706,-2.226 -0.506,-1.508 -0.964,-2.869 -1.213,-4.844 -0.037,-0.329 -0.079,-0.674 -0.109,-1.038 -0.024,-0.375 -0.053,-0.766 -0.069,-1.176 l 0.003,-0.052 -0.007,-0.058 c -0.01,-0.099 -0.019,-0.198 -0.009,-0.286 -0.028,-0.23 -0.041,-0.438 -0.035,-0.635 0.002,-4.61 2.808,-9.98 6.273,-11.976 0.382,-0.221 0.748,-0.37 1.096,-0.463 0.269,-0.072 0.52,-0.114 0.764,-0.12 0.26,-0.01 0.498,-0.006 0.739,0.039 0.123,0.018 0.241,0.046 0.353,0.083 0.347,0.093 0.675,0.243 0.996,0.428 l 19.949,11.517 -0.006,0.01 c 0.11,0.064 0.225,0.143 0.339,0.223 1.181,0.895 1.835,2.61 1.836,4.829 0.003,0.296 -0.016,0.606 -0.055,1.091 l 0.001,0.068 -0.009,0.062 c -0.117,3.328 -0.708,5.74 -1.383,8.531 -0.167,0.706 -0.34,1.421 -0.504,2.169 -0.067,0.255 -0.118,0.506 -0.17,0.757 -0.176,0.767 -0.337,1.556 -0.466,2.404 -0.048,0.27 -0.087,0.559 -0.131,0.838 l 14.051,-7.932 19.979,11.535 -0.003,11.881 -0.005,5.704 0.011,5.353 c -0.003,6.441 -0.494,10.741 -1.494,13.145 -0.701,1.654 -1.769,2.694 -4.235,4.118 -2.826,1.63 -4.503,1.757 -6.446,1.905 -0.714,0.056 -1.397,0.129 -2.083,0.228 -0.262,0.036 -0.529,0.082 -0.812,0.133 -0.257,0.052 -0.514,0.104 -0.783,0.176 -0.479,0.111 -0.98,0.263 -1.478,0.43 l -0.403,0.142 c -0.732,0.272 -1.451,0.592 -2.205,0.972 -0.091,0.041 -0.181,0.082 -0.268,0.139 l -0.069,0.027 -0.112,0.055 c -0.272,0.124 -0.581,0.266 -0.904,0.454 -2.643,1.522 -5.189,4.034 -7.369,7.254 -0.996,1.47 -1.884,3.056 -2.635,4.68 -0.72,1.549 -1.325,3.151 -1.82,4.75 0.377,-0.397 0.747,-0.785 1.102,-1.168 1.182,-1.283 2.178,-2.338 3.321,-3.322 1.028,-0.877 2.024,-1.585 3.147,-2.233 1.601,-0.92 2.885,-1.663 3.83,-1.077 l 0.006,-0.01 19.817,11.815 -0.006,0.01 c 0.08,0.046 0.154,0.103 0.223,0.169 0.054,0.045 0.113,0.105 0.156,0.17 0.03,0.017 0.054,0.045 0.077,0.098 0.059,0.061 0.101,0.125 0.148,0.206 0.014,0.022 0.024,0.027 0.033,0.059 0.057,0.086 0.108,0.183 0.164,0.295 0.511,1.083 0.845,3.027 0.996,6.216 0.02,0.359 0.034,0.728 0.047,1.123 0.027,1.018 0.048,2.139 0.045,3.394 l 0.008,22.928 -65.298,37.698 c -1.225,0.71 -2.41,1.095 -3.503,1.159 -0.401,0.023 -0.794,0.009 -1.18,-0.04 -0.129,-0.008 -0.263,-0.031 -0.385,-0.075 -0.505,-0.116 -0.987,-0.301 -1.432,-0.571 z" />
			<path
   id="XMLID_15008_"
   style="opacity:0.1"
   d="m 225.751,310.93 0.006,-0.01 19.807,11.81 -0.006,0.01 c -0.939,-0.596 -2.229,0.157 -3.83,1.077 -1.123,0.648 -2.119,1.356 -3.137,2.239 -1.153,0.978 -2.15,2.034 -3.331,3.316 -2.03,2.196 -4.331,4.677 -7.827,6.936 -0.39,0.283 -0.854,0.576 -1.279,0.826 -7.258,4.19 -13.156,-0.271 -13.156,-9.948 0.002,-2.713 0.492,-5.61 1.371,-8.474 0.37,-0.391 0.725,-0.778 1.084,-1.149 1.182,-1.283 2.178,-2.338 3.321,-3.322 1.018,-0.883 2.014,-1.591 3.137,-2.239 1.601,-0.921 2.895,-1.657 3.84,-1.072 z" />
			<path
   id="XMLID_15007_"
   style="opacity:0.1"
   d="m 213.415,253.577 14.07,-7.939 19.985,11.539 -0.019,0.005 -17.186,9.922 -0.033,0.029 -0.038,0.01 -5.178,2.699 -0.052,0.034 -0.057,0.015 c -0.117,0.062 -0.238,0.105 -0.367,0.16 l -0.186,0.07 c -0.303,0.132 -0.591,0.24 -0.861,0.343 -0.167,0.065 -0.327,0.118 -0.487,0.171 l -0.129,0.055 c -0.275,0.084 -0.544,0.187 -0.812,0.259 -0.191,0.051 -0.37,0.109 -0.555,0.148 -0.287,0.077 -0.559,0.129 -0.832,0.182 l -0.089,0.014 c -0.127,0.024 -0.254,0.047 -0.373,0.059 -0.335,0.049 -0.688,0.072 -1.014,0.077 -0.089,0.013 -0.151,0.01 -0.214,0.006 -0.389,0.002 -0.781,-0.047 -1.159,-0.12 -0.056,-0.016 -0.13,-0.027 -0.198,-0.049 -0.321,-0.088 -0.603,-0.187 -0.86,-0.302 -0.092,-0.037 -0.164,-0.079 -0.237,-0.121 l -0.036,-0.021 c -0.242,-0.14 -0.49,-0.299 -0.723,-0.482 l -0.041,-0.04 c -0.054,-0.047 -0.119,-0.101 -0.173,-0.148 -0.256,-0.229 -0.484,-0.506 -0.705,-0.795 -0.029,-0.033 -0.064,-0.085 -0.093,-0.118 -0.485,-0.7 -0.882,-1.608 -1.186,-2.704 -0.016,-0.057 -0.031,-0.115 -0.046,-0.172 -0.126,-0.509 -0.221,-1.017 -0.314,-1.555 l -0.04,-0.266 c -0.089,-0.601 -0.158,-1.238 -0.2,-1.893 -0.055,-0.856 -0.073,-1.609 -0.078,-2.356 0,-2.521 0.215,-4.74 0.516,-6.716 z" />
			<path
   id="XMLID_15065_"
   style="opacity:0.1"
   d="m 172.38,300.433 -19.969,-11.529 17.272,-10.077 0.145,-0.09 0.059,-0.033 0.032,-0.008 2.45,-1.419 0.006,-0.01 2.775,-1.913 c 0.033,-0.034 0.061,-0.059 0.098,-0.077 0.043,-0.029 0.086,-0.057 0.114,-0.081 0.151,-0.1 0.267,-0.207 0.402,-0.303 l 0.147,-0.116 c 0.163,-0.12 0.326,-0.24 0.488,-0.36 0.163,-0.12 0.315,-0.246 0.462,-0.361 0.131,-0.111 0.262,-0.223 0.388,-0.324 l 0.153,-0.126 0.137,-0.121 c 0.261,-0.197 0.507,-0.415 0.748,-0.624 0.137,-0.122 0.258,-0.239 0.379,-0.356 l 0.148,-0.142 c 0.467,-0.439 0.936,-0.903 1.369,-1.375 l 0.154,-0.151 c 0.178,-0.191 0.349,-0.373 0.517,-0.57 0.078,-0.089 0.162,-0.187 0.229,-0.282 0.078,-0.089 0.14,-0.173 0.202,-0.258 l 0.066,-0.069 0.072,-0.079 0.091,-0.135 c 0.189,-0.212 0.374,-0.439 0.533,-0.668 0.142,-0.199 0.289,-0.408 0.43,-0.607 l 0.097,-0.145 0.035,-0.06 c 0.192,-0.263 0.364,-0.538 0.531,-0.803 0.155,-0.245 0.288,-0.475 0.427,-0.716 l 0.042,-0.096 c 0.121,-0.211 0.237,-0.411 0.349,-0.627 0.068,-0.094 0.121,-0.211 0.179,-0.311 0.12,-0.278 0.267,-0.555 0.381,-0.822 l 0.017,-0.03 c 0.073,-0.172 0.155,-0.338 0.228,-0.51 0.077,-0.156 0.149,-0.328 0.228,-0.51 0.061,-0.152 0.116,-0.294 0.167,-0.452 0.055,-0.142 0.116,-0.294 0.171,-0.436 0.131,-0.366 0.244,-0.701 0.355,-1.078 l 0.006,-0.01 c 0.09,-0.295 0.186,-0.601 0.272,-0.912 0.013,-0.046 0.021,-0.082 0.034,-0.128 0.082,-0.327 0.175,-0.674 0.247,-1.007 l 0.032,-0.102 c 0.053,-0.277 0.11,-0.538 0.163,-0.815 l 0.006,-0.01 c 0.075,-0.385 0.153,-0.821 0.204,-1.232 l 0.028,-0.211 c 0.02,-0.082 0.037,-0.179 0.053,-0.277 0.007,-0.036 0.015,-0.072 0.012,-0.113 0.01,-0.088 0.027,-0.185 0.033,-0.288 0.061,-0.499 0.105,-0.969 0.133,-1.434 l 0.028,-0.211 c 0.017,-0.191 0.032,-0.356 0.038,-0.553 l 0.006,-0.01 c 0.028,-0.719 0.051,-1.454 0.064,-2.195 l 0.001,-0.026 -0.001,-0.068 c -0.008,-0.218 -0.007,-0.405 -0.014,-0.623 l -0.006,-0.244 -0.003,-0.296 c -0.006,-0.244 -0.016,-0.504 -0.028,-0.738 -10e-4,-0.067 -0.008,-0.125 0.001,-0.187 -0.007,-0.057 -0.008,-0.125 -0.015,-0.182 l -0.007,-0.151 -0.008,-0.125 c -0.03,-0.365 -0.05,-0.724 -0.081,-1.063 l -0.017,-0.063 0.006,-0.01 c -0.033,-0.313 -0.062,-0.61 -0.097,-0.898 -0.207,-1.563 -0.503,-2.856 -0.824,-3.991 -0.226,-0.812 -0.473,-1.543 -0.706,-2.226 -0.506,-1.508 -0.964,-2.869 -1.213,-4.844 -0.037,-0.329 -0.079,-0.674 -0.109,-1.038 -0.024,-0.375 -0.042,-0.76 -0.059,-1.171 l -0.007,-0.057 0.003,-0.052 c -0.01,-0.099 -0.019,-0.198 -0.019,-0.291 -0.028,-0.23 -0.041,-0.438 -0.035,-0.635 0.002,-4.61 2.808,-9.98 6.273,-11.976 0.382,-0.221 0.748,-0.37 1.096,-0.463 0.269,-0.072 0.52,-0.114 0.764,-0.12 0.256,-0.026 0.498,-0.006 0.739,0.039 0.123,0.018 0.241,0.046 0.353,0.083 0.347,0.093 0.675,0.243 0.996,0.428 l 19.949,11.517 c -0.421,-0.243 -0.89,-0.38 -1.391,-0.415 -0.336,-0.02 -0.691,0.016 -1.053,0.087 -0.52,0.114 -1.088,0.334 -1.652,0.663 -0.586,0.343 -1.156,0.776 -1.69,1.283 -1.325,1.253 -2.46,2.964 -3.272,4.834 -0.174,0.394 -0.322,0.79 -0.466,1.201 -0.201,0.579 -0.366,1.166 -0.495,1.76 -0.22,0.982 -0.34,1.955 -0.34,2.904 -0.006,0.264 0.028,0.577 0.049,0.911 l 0.007,0.057 -0.003,0.052 c 0.084,2.053 0.335,3.495 0.692,4.797 0.062,0.263 0.136,0.506 0.203,0.759 0.161,0.508 0.324,0.989 0.486,1.497 0.228,0.693 0.48,1.413 0.707,2.226 0.082,0.275 0.148,0.553 0.225,0.838 0.076,0.285 0.141,0.589 0.216,0.9 0.198,0.93 0.375,1.967 0.49,3.156 l 0.007,0.057 0.01,0.006 c 0.005,0.177 0.016,0.343 0.031,0.526 0.015,0.182 0.02,0.359 0.035,0.542 l 0.012,0.141 0.012,0.141 c 0.008,0.125 0.022,0.24 0.024,0.375 0.008,0.125 0.012,0.234 0.004,0.363 0.008,0.125 0.016,0.25 0.014,0.369 l 0.003,0.296 v 0.254 c 0.009,0.192 0.013,0.395 0.02,0.613 l -0.009,0.062 -0.002,0.026 c -0.002,0.373 -0.003,0.747 -0.015,1.114 -0.012,0.367 -0.033,0.729 -0.045,1.097 -0.011,0.181 -0.028,0.372 -0.048,0.547 l -0.018,0.217 c -0.028,0.465 -0.077,0.944 -0.133,1.434 -0.024,0.227 -0.058,0.448 -0.088,0.685 l -0.033,0.195 -0.006,0.01 c -0.066,0.416 -0.133,0.832 -0.209,1.242 -0.053,0.277 -0.116,0.548 -0.173,0.809 l -0.022,0.108 c -0.042,0.189 -0.085,0.379 -0.143,0.572 -0.042,0.189 -0.101,0.383 -0.147,0.557 -0.021,0.082 -0.035,0.153 -0.056,0.235 -0.06,0.219 -0.141,0.453 -0.207,0.683 l -0.006,0.01 c -0.115,0.361 -0.23,0.722 -0.365,1.072 -0.106,0.3 -0.222,0.593 -0.339,0.887 -0.145,0.344 -0.29,0.688 -0.439,1.016 -0.136,0.282 -0.273,0.564 -0.409,0.847 l -0.006,0.01 c -0.087,0.15 -0.169,0.316 -0.256,0.467 -0.093,0.16 -0.169,0.316 -0.246,0.473 l -0.058,0.1 c -0.069,0.12 -0.139,0.241 -0.218,0.355 l -0.07,0.12 c -0.04,0.07 -0.087,0.15 -0.143,0.225 -0.172,0.275 -0.344,0.55 -0.526,0.819 l -0.035,0.06 -0.107,0.139 c -0.058,0.1 -0.132,0.205 -0.215,0.303 -0.068,0.094 -0.132,0.205 -0.21,0.293 -0.062,0.085 -0.124,0.169 -0.186,0.253 -0.113,0.149 -0.225,0.298 -0.342,0.431 l -0.101,0.129 -0.113,0.149 c -0.084,0.099 -0.162,0.187 -0.224,0.272 -0.027,0.024 -0.045,0.054 -0.072,0.079 -0.05,0.064 -0.101,0.129 -0.162,0.187 -0.084,0.099 -0.167,0.198 -0.261,0.29 -0.068,0.094 -0.162,0.187 -0.245,0.286 L 200,282.804 c -0.439,0.482 -0.902,0.936 -1.379,1.369 l -0.139,0.147 c -0.131,0.111 -0.252,0.229 -0.389,0.35 -0.231,0.214 -0.487,0.427 -0.744,0.64 l -0.141,0.106 -0.072,0.079 -0.071,0.053 c -0.125,0.101 -0.257,0.213 -0.388,0.324 -0.31,0.236 -0.625,0.481 -0.951,0.721 l -0.147,0.116 c -0.135,0.096 -0.261,0.197 -0.402,0.303 -0.071,0.053 -0.151,0.1 -0.222,0.153 l -2.765,1.919 -2.45,1.419 -0.086,0.057 -0.156,0.084 z" />
		</g>
		<g
   id="XMLID_14931_">
			<defs
   id="defs3484">
				<path
   id="XMLID_14997_"
   d="m 226.164,327.941 c 0.207,-0.12 0.451,-0.293 0.709,-0.476 l 0.042,-0.03 0.043,-0.028 c 2.525,-1.629 4.081,-3.304 5.884,-5.244 0.885,-0.952 1.683,-1.805 2.574,-2.678 l 0.141,-0.141 c 0.09,-0.087 0.176,-0.167 0.263,-0.247 l 0.123,-0.114 c 0.443,-0.419 0.885,-0.816 1.328,-1.194 l 8.294,4.945 -0.001,0.002 c 0.155,0.096 0.3,0.228 0.437,0.4 0.001,0.002 0.003,0.004 0.004,0.005 0.063,0.08 0.125,0.171 0.184,0.27 0.012,0.02 0.023,0.042 0.035,0.062 0.048,0.085 0.096,0.175 0.141,0.273 0.015,0.031 0.029,0.064 0.043,0.096 0.041,0.095 0.082,0.195 0.121,0.302 0.015,0.04 0.03,0.082 0.044,0.124 0.037,0.109 0.073,0.225 0.109,0.345 0.014,0.047 0.027,0.093 0.041,0.141 0.036,0.133 0.071,0.275 0.104,0.421 0.01,0.044 0.02,0.084 0.03,0.129 0.039,0.182 0.077,0.375 0.113,0.579 0.003,0.016 0.006,0.029 0.009,0.045 0.039,0.227 0.076,0.468 0.11,0.723 0.003,0.019 0.005,0.041 0.008,0.061 0.03,0.228 0.058,0.466 0.085,0.716 0.008,0.078 0.016,0.162 0.023,0.242 0.02,0.201 0.039,0.406 0.056,0.621 0.008,0.103 0.016,0.212 0.024,0.319 0.015,0.202 0.029,0.409 0.042,0.623 0.008,0.127 0.015,0.258 0.022,0.389 0.011,0.208 0.021,0.423 0.031,0.643 0.006,0.144 0.012,0.289 0.018,0.438 0.008,0.231 0.016,0.472 0.022,0.715 0.004,0.147 0.008,0.291 0.012,0.443 0.006,0.276 0.011,0.564 0.015,0.855 0.002,0.135 0.005,0.264 0.006,0.402 0.005,0.435 0.007,0.883 0.007,1.352 l 0.003,22.926 82.042,-47.355 0.002,-12.937 c 10e-4,-0.076 0.008,-0.153 0.008,-0.228 v -65.769 l 0.004,-30.489 -0.001,0.001 -17.197,9.929 c -0.109,0.063 -0.214,0.126 -0.318,0.188 l -0.204,0.121 -0.024,0.014 -0.023,0.015 -3.391,2.107 -0.029,0.018 -0.029,0.02 c -1.454,0.968 -2.734,1.922 -3.91,2.916 l -0.084,0.069 c -0.068,0.056 -0.137,0.112 -0.205,0.171 -0.306,0.265 -0.598,0.535 -0.889,0.806 l -0.079,0.074 c -0.128,0.118 -0.254,0.237 -0.378,0.357 -0.269,0.262 -0.529,0.529 -0.785,0.797 -0.164,0.173 -0.326,0.348 -0.487,0.526 -0.243,0.27 -0.482,0.545 -0.712,0.823 -0.153,0.185 -0.299,0.373 -0.475,0.599 -0.223,0.287 -0.445,0.576 -0.653,0.87 -0.124,0.175 -0.242,0.355 -0.36,0.535 l -0.087,0.134 -0.095,0.144 c -0.17,0.256 -0.339,0.514 -0.497,0.779 -0.116,0.194 -0.223,0.394 -0.33,0.595 l -0.081,0.152 c -0.309,0.565 -0.601,1.154 -0.867,1.751 l -0.069,0.154 c -0.113,0.251 -0.225,0.503 -0.328,0.762 -0.103,0.259 -0.198,0.527 -0.29,0.795 l -0.071,0.204 c -0.107,0.305 -0.213,0.611 -0.309,0.925 -0.098,0.319 -0.187,0.649 -0.276,0.983 -0.088,0.335 -0.173,0.674 -0.251,1.022 -0.073,0.326 -0.142,0.659 -0.205,0.994 -0.067,0.357 -0.126,0.723 -0.18,1.092 l -0.01,0.067 c -0.045,0.303 -0.09,0.607 -0.127,0.919 -0.046,0.389 -0.08,0.792 -0.115,1.225 l -0.02,0.237 c -0.02,0.229 -0.039,0.458 -0.052,0.695 -0.027,0.493 -0.043,1.023 -0.051,1.718 l -0.004,0.105 c -0.005,0.124 -0.009,0.248 -0.009,0.378 0,5.433 0.954,8.283 1.799,10.805 0.675,2.016 1.258,3.757 1.386,7.052 l 0.003,0.058 0.004,0.054 c 0.026,0.329 0.05,0.639 0.05,0.915 0,2.304 -0.703,4.8 -1.839,6.969 -1.135,2.169 -2.702,4.01 -4.43,5.008 -0.007,0.004 -0.013,0.005 -0.02,0.009 -0.318,0.182 -0.631,0.322 -0.94,0.437 -0.053,0.02 -0.107,0.043 -0.16,0.061 -0.302,0.102 -0.597,0.168 -0.885,0.204 -0.051,0.006 -0.102,0.011 -0.152,0.015 -0.295,0.026 -0.582,0.022 -0.857,-0.022 -0.021,-0.003 -0.04,-0.01 -0.061,-0.014 -0.285,-0.051 -0.559,-0.137 -0.817,-0.263 -0.006,-0.003 -0.012,-0.003 -0.018,-0.006 l -10e-4,0.004 -0.026,-0.015 c -0.003,-0.002 -0.006,-0.004 -0.009,-0.005 -0.028,-0.014 -0.054,-0.033 -0.082,-0.048 -0.012,-0.007 -0.024,-0.014 -0.037,-0.021 l -8.864,-5.117 c 0.023,-0.258 0.041,-0.51 0.069,-0.775 0.031,-0.301 0.068,-0.599 0.105,-0.898 0.079,-0.621 0.167,-1.223 0.262,-1.797 0.088,-0.533 0.183,-1.058 0.285,-1.572 0.053,-0.265 0.105,-0.526 0.159,-0.782 0.234,-1.104 0.487,-2.216 0.775,-3.403 0.73,-3.014 1.361,-5.618 1.361,-9.381 0,-3.035 -0.256,-4.351 -1.071,-4.832 l -9.862,-5.687 -16.733,9.662 -6.888,-4.035 v 8.011 l -6.044,3.489 0.005,-0.007 -1.915,1.106 7.959,4.595 -0.008,0.002 v 0 l -0.003,0.002 0.003,-0.002 v 11.881 l -0.003,-0.003 v 5.709 5.352 c 0,6.444 -0.489,10.744 -1.492,13.14 -0.696,1.655 -1.765,2.696 -4.238,4.123 -2.821,1.629 -4.501,1.758 -6.447,1.907 -0.703,0.054 -1.4,0.129 -2.072,0.224 -0.266,0.038 -0.538,0.083 -0.816,0.136 -0.257,0.049 -0.519,0.105 -0.786,0.17 -0.481,0.116 -0.978,0.262 -1.482,0.436 l -0.101,0.035 c -0.097,0.033 -0.195,0.067 -0.293,0.103 -0.738,0.274 -1.461,0.593 -2.21,0.975 -0.089,0.041 -0.179,0.087 -0.27,0.135 l -0.063,0.034 -0.121,0.055 c -0.27,0.124 -0.577,0.264 -0.906,0.454 -2.635,1.521 -5.179,4.029 -7.357,7.251 -0.478,0.707 -0.929,1.438 -1.353,2.185 -0.063,0.11 -0.116,0.225 -0.177,0.335 -0.365,0.66 -0.717,1.328 -1.039,2.01 -0.025,0.053 -0.046,0.106 -0.07,0.159 -0.72,1.547 -1.331,3.141 -1.817,4.746 v 0 c -0.489,1.567 -0.832,3.059 -1.041,4.484 l 8.765,5.06 c 1.097,0.628 2.526,0.567 4.088,-0.335 z" />
			</defs>
			<clipPath
   id="XMLID_00000024718984832274583490000010460444144723976100_">
				<use
   xlink:href="#XMLID_14997_"
   style="overflow:visible"
   id="use3486"
   x="0"
   y="0"
   width="100%"
   height="100%" />
			</clipPath>
			<g
   id="XMLID_14998_"
   clip-path="url(#XMLID_00000024718984832274583490000010460444144723976100_)">
				<path
   id="XMLID_15033_"
   style="fill:#27debf"
   d="m 248.665,300.515 -21.282,-12.287 c 0.147,-0.209 0.311,-0.422 0.47,-0.651 l 0.045,-0.054 c 0.079,-0.115 0.153,-0.219 0.233,-0.333 0.341,-0.498 0.658,-1.024 0.947,-1.525 l 0.093,-0.16 c 0.308,-0.557 0.614,-1.156 0.895,-1.782 0.061,-0.152 0.132,-0.298 0.199,-0.46 l 0.032,-0.102 c 0.157,-0.364 0.338,-0.794 0.507,-1.271 0.08,-0.208 0.15,-0.421 0.226,-0.645 l 0.039,-0.138 c 0.125,-0.355 0.24,-0.717 0.345,-1.084 0.09,-0.295 0.171,-0.596 0.251,-0.898 0.082,-0.327 0.159,-0.67 0.247,-1.007 0.066,-0.323 0.138,-0.656 0.204,-0.978 0.06,-0.313 0.12,-0.625 0.171,-0.944 l 0.029,-0.143 c 0.054,-0.303 0.105,-0.621 0.155,-0.94 0.021,-0.175 0.053,-0.37 0.08,-0.555 l 0.022,-0.201 c 0.215,-1.6 0.352,-3.272 0.456,-5.096 l -0.005,-0.083 0.007,-0.036 -0.003,-0.042 0.007,-0.036 0.108,-4.91 0.007,-0.036 -0.008,-0.032 0.003,-0.145 0.004,-0.238 0.002,-22.922 21.207,12.417 -0.006,0.01 -0.001,22.922 -0.004,0.238 0.002,0.135 0.003,0.042 -0.002,0.026 -0.114,4.92 -10e-4,0.026 -0.007,0.036 0.003,0.042 -0.01,0.088 c -0.089,1.82 -0.231,3.502 -0.44,5.092 l -0.028,0.211 c -0.027,0.185 -0.053,0.37 -0.08,0.555 -0.05,0.319 -0.095,0.627 -0.149,0.93 l -0.029,0.143 c -0.056,0.328 -0.111,0.631 -0.171,0.944 -0.072,0.333 -0.138,0.655 -0.22,0.982 -0.072,0.333 -0.15,0.676 -0.231,1.003 -0.086,0.311 -0.166,0.612 -0.251,0.898 -0.105,0.367 -0.22,0.728 -0.345,1.084 l -0.045,0.148 c -0.07,0.214 -0.146,0.437 -0.226,0.645 -0.163,0.467 -0.35,0.907 -0.507,1.271 l -0.042,0.096 c -0.061,0.152 -0.122,0.304 -0.183,0.456 -0.291,0.62 -0.587,1.225 -0.901,1.792 l -0.093,0.16 c -0.289,0.501 -0.61,1.011 -0.947,1.525 -0.074,0.104 -0.153,0.219 -0.237,0.318 l -0.04,0.07 c -0.132,0.178 -0.257,0.346 -0.391,0.509 z" />
				<path
   id="XMLID_15011_"
   style="fill:#27debf"
   d="m 233.076,341.129 0.063,-19.277 c -0.1,0.103 -0.199,0.206 -0.299,0.309 0.882,-0.948 1.685,-1.807 2.572,-2.672 l 0.149,-0.142 c 0.088,-0.083 0.176,-0.166 0.264,-0.249 l 0.121,-0.117 c 1.804,-1.712 3.586,-3.062 5.564,-4.219 l 0.006,-0.01 0.214,-0.117 0.049,-0.038 0.155,-0.084 0.016,-0.004 c 0.478,-0.272 0.948,-0.508 1.429,-0.739 0.134,-0.07 0.272,-0.124 0.4,-0.184 l 0.144,-0.064 c 0.314,-0.126 0.654,-0.277 0.998,-0.386 0.175,-0.073 0.349,-0.119 0.513,-0.171 l 0.079,-0.021 c 0.285,-0.076 0.569,-0.153 0.826,-0.204 0.21,-0.039 0.404,-0.074 0.592,-0.099 0.256,-0.026 0.496,-0.048 0.734,-0.044 0.192,-0.009 0.379,-0.009 0.56,0.003 0.243,0.02 0.458,0.064 0.657,0.112 l 0.088,0.01 c 0.143,0.029 0.281,0.069 0.409,0.102 0.234,0.081 0.43,0.181 0.6,0.28 0.262,0.125 0.447,0.245 0.616,0.369 0.209,0.147 0.426,0.326 0.646,0.547 0.107,0.115 0.209,0.241 0.314,0.382 l 0.077,0.098 0.053,0.071 c 0.101,0.125 0.197,0.261 0.297,0.412 0.124,0.179 0.231,0.387 0.338,0.596 0.102,0.193 0.191,0.364 0.267,0.555 0.111,0.225 0.205,0.479 0.298,0.734 0.077,0.191 0.138,0.387 0.198,0.582 0.092,0.28 0.168,0.565 0.249,0.865 0.042,0.158 0.079,0.326 0.116,0.494 l 0.021,0.079 c 0.073,0.336 0.146,0.673 0.208,1.029 0.015,0.089 0.035,0.194 0.045,0.293 l 0.024,0.121 c 0.226,1.414 0.384,3.015 0.491,4.868 l -0.007,0.036 0.003,0.042 0.111,4.461 0.008,0.032 -0.002,0.026 0.005,0.27 c -0.003,0.145 -10e-4,0.28 -0.005,0.425 l 0.008,22.927 z" />
				<path
   id="XMLID_15012_"
   style="fill:#27debf"
   d="m 221.82,328.122 -20.931,-12.085 c -1.392,-0.737 -2.199,-2.673 -2.195,-5.25 0.001,-2.78 1.037,-5.964 2.757,-8.526 0.136,-0.189 0.256,-0.374 0.402,-0.557 -0.103,0.155 -0.221,0.313 -0.324,0.468 l 21.282,12.287 c -0.056,0.074 -0.097,0.145 -0.153,0.219 -1.736,2.567 -2.762,5.757 -2.757,8.526 -0.002,2.365 0.74,4.09 1.919,4.918 z" />
				<path
   id="XMLID_15001_"
   style="fill:#263238"
   d="m 248.665,300.515 -21.282,-12.287 c 0.147,-0.209 0.311,-0.422 0.47,-0.651 l 0.045,-0.054 c 0.079,-0.115 0.153,-0.219 0.233,-0.333 0.341,-0.498 0.658,-1.024 0.947,-1.525 l 0.093,-0.16 c 0.308,-0.557 0.614,-1.156 0.895,-1.782 0.061,-0.152 0.132,-0.298 0.199,-0.46 l 0.032,-0.102 c 0.157,-0.364 0.338,-0.794 0.507,-1.271 0.08,-0.208 0.15,-0.421 0.226,-0.645 l 0.039,-0.138 c 0.125,-0.355 0.24,-0.717 0.345,-1.084 0.09,-0.295 0.171,-0.596 0.251,-0.898 0.082,-0.327 0.159,-0.67 0.247,-1.007 0.066,-0.323 0.138,-0.656 0.204,-0.978 0.06,-0.313 0.12,-0.625 0.171,-0.944 l 0.029,-0.143 c 0.054,-0.303 0.105,-0.621 0.155,-0.94 0.021,-0.175 0.053,-0.37 0.08,-0.555 l 0.022,-0.201 c 0.215,-1.6 0.352,-3.272 0.456,-5.096 l -0.005,-0.083 0.007,-0.036 -0.003,-0.042 0.007,-0.036 0.108,-4.91 0.007,-0.036 -0.008,-0.032 0.003,-0.145 0.004,-0.238 0.002,-22.922 21.207,12.417 -0.006,0.01 -0.001,22.922 -0.004,0.238 0.002,0.135 0.003,0.042 -0.002,0.026 -0.114,4.92 -10e-4,0.026 -0.007,0.036 0.003,0.042 -0.01,0.088 c -0.089,1.82 -0.231,3.502 -0.44,5.092 l -0.028,0.211 c -0.027,0.185 -0.053,0.37 -0.08,0.555 -0.05,0.319 -0.095,0.627 -0.149,0.93 l -0.029,0.143 c -0.056,0.328 -0.111,0.631 -0.171,0.944 -0.072,0.333 -0.138,0.655 -0.22,0.982 -0.072,0.333 -0.15,0.676 -0.231,1.003 -0.086,0.311 -0.166,0.612 -0.251,0.898 -0.105,0.367 -0.22,0.728 -0.345,1.084 l -0.045,0.148 c -0.07,0.214 -0.146,0.437 -0.226,0.645 -0.163,0.467 -0.35,0.907 -0.507,1.271 l -0.042,0.096 c -0.061,0.152 -0.122,0.304 -0.183,0.456 -0.291,0.62 -0.587,1.225 -0.901,1.792 l -0.093,0.16 c -0.289,0.501 -0.61,1.011 -0.947,1.525 -0.074,0.104 -0.153,0.219 -0.237,0.318 l -0.04,0.07 c -0.132,0.178 -0.257,0.346 -0.391,0.509 z" />
				<path
   id="XMLID_14999_"
   style="fill:#263238"
   d="m 233.076,341.129 0.063,-19.277 c -0.1,0.103 -0.199,0.206 -0.299,0.309 0.882,-0.948 1.685,-1.807 2.572,-2.672 l 0.149,-0.142 c 0.088,-0.083 0.176,-0.166 0.264,-0.249 l 0.121,-0.117 c 1.804,-1.712 3.586,-3.062 5.564,-4.219 l 0.006,-0.01 0.214,-0.117 0.049,-0.038 0.155,-0.084 0.016,-0.004 c 0.478,-0.272 0.948,-0.508 1.429,-0.739 0.134,-0.07 0.272,-0.124 0.4,-0.184 l 0.144,-0.064 c 0.314,-0.126 0.654,-0.277 0.998,-0.386 0.175,-0.073 0.349,-0.119 0.513,-0.171 l 0.079,-0.021 c 0.285,-0.076 0.569,-0.153 0.826,-0.204 0.21,-0.039 0.404,-0.074 0.592,-0.099 0.256,-0.026 0.496,-0.048 0.734,-0.044 0.192,-0.009 0.379,-0.009 0.56,0.003 0.243,0.02 0.458,0.064 0.657,0.112 l 0.088,0.01 c 0.143,0.029 0.281,0.069 0.409,0.102 0.234,0.081 0.43,0.181 0.6,0.28 0.262,0.125 0.447,0.245 0.616,0.369 0.209,0.147 0.426,0.326 0.646,0.547 0.107,0.115 0.209,0.241 0.314,0.382 l 0.077,0.098 0.053,0.071 c 0.101,0.125 0.197,0.261 0.297,0.412 0.124,0.179 0.231,0.387 0.338,0.596 0.102,0.193 0.191,0.364 0.267,0.555 0.111,0.225 0.205,0.479 0.298,0.734 0.077,0.191 0.138,0.387 0.198,0.582 0.092,0.28 0.168,0.565 0.249,0.865 0.042,0.158 0.079,0.326 0.116,0.494 l 0.021,0.079 c 0.073,0.336 0.146,0.673 0.208,1.029 0.015,0.089 0.035,0.194 0.045,0.293 l 0.024,0.121 c 0.226,1.414 0.384,3.015 0.491,4.868 l -0.007,0.036 0.003,0.042 0.111,4.461 0.008,0.032 -0.002,0.026 0.005,0.27 c -0.003,0.145 -10e-4,0.28 -0.005,0.425 l 0.008,22.927 z" />
				<path
   id="XMLID_14727_"
   style="fill:#263238"
   d="m 221.82,328.122 -20.931,-12.085 c -1.392,-0.737 -2.199,-2.673 -2.195,-5.25 0.001,-2.78 1.037,-5.964 2.757,-8.526 0.136,-0.189 0.256,-0.374 0.402,-0.557 -0.103,0.155 -0.221,0.313 -0.324,0.468 l 21.282,12.287 c -0.056,0.074 -0.097,0.145 -0.153,0.219 -1.736,2.567 -2.762,5.757 -2.757,8.526 -0.002,2.365 0.74,4.09 1.919,4.918 z" />
				<path
   id="XMLID_15052_"
   style="fill:#37474f;stroke:#37474f;stroke-opacity:1"
   d="m 221.966,328.193 -0.006,0.01 -0.14,-0.081 c -1.179,-0.828 -1.921,-2.553 -1.919,-4.917 -0.005,-2.77 1.021,-5.96 2.757,-8.526 0.056,-0.074 0.097,-0.145 0.153,-0.219 l -21.282,-12.287 c 0.103,-0.155 0.221,-0.313 0.324,-0.468 0.27,-0.352 0.544,-0.688 0.833,-1.003 0.144,-0.157 0.289,-0.315 0.437,-0.456 0.15,-0.167 0.314,-0.313 0.473,-0.449 0.438,-0.389 0.893,-0.714 1.35,-0.972 l 0.006,-0.01 c 0.167,-0.104 0.333,-0.182 0.551,-0.283 0.069,-0.027 0.144,-0.064 0.234,-0.105 l 0.047,-0.013 0.053,-0.023 c 1.065,-0.548 1.966,-0.883 2.793,-1.087 0.111,-0.03 0.231,-0.054 0.342,-0.083 0.92,-0.204 1.764,-0.278 2.661,-0.349 2.261,-0.165 4.809,-0.365 8.891,-2.713 0.226,-0.137 0.468,-0.278 0.7,-0.425 0.204,-0.122 0.399,-0.251 0.599,-0.389 0.145,-0.09 0.302,-0.2 0.454,-0.299 0.006,-0.01 0.027,-0.024 0.033,-0.034 0.032,-0.009 0.043,-0.029 0.059,-0.033 0.243,-0.167 0.493,-0.344 0.738,-0.537 0.239,-0.183 0.478,-0.365 0.707,-0.554 0.049,-0.039 0.082,-0.073 0.126,-0.101 0.043,-0.029 0.076,-0.063 0.109,-0.097 l 0.082,-0.073 c 0.104,-0.087 0.202,-0.164 0.296,-0.257 0.098,-0.077 0.202,-0.164 0.29,-0.247 0.186,-0.16 0.362,-0.326 0.543,-0.502 0.078,-0.089 0.172,-0.182 0.254,-0.254 0.039,-0.044 0.072,-0.079 0.105,-0.113 0.154,-0.152 0.299,-0.309 0.443,-0.466 0.177,-0.192 0.355,-0.383 0.528,-0.591 l 0.072,-0.079 c 0.089,-0.109 0.185,-0.227 0.29,-0.34 0.13,-0.179 0.286,-0.356 0.422,-0.545 l 21.292,12.293 c 0.134,-0.163 0.258,-0.332 0.389,-0.511 l 0.04,-0.07 c 0.084,-0.099 0.163,-0.213 0.237,-0.318 0.337,-0.514 0.658,-1.024 0.947,-1.525 l 0.093,-0.16 c 0.314,-0.567 0.61,-1.172 0.901,-1.792 0.061,-0.152 0.122,-0.304 0.183,-0.456 l 0.042,-0.096 c 0.157,-0.364 0.344,-0.804 0.507,-1.271 0.08,-0.208 0.156,-0.432 0.226,-0.645 l 0.045,-0.148 c 0.125,-0.356 0.24,-0.717 0.345,-1.084 0.085,-0.285 0.165,-0.586 0.251,-0.898 0.082,-0.327 0.16,-0.67 0.231,-1.003 0.082,-0.327 0.148,-0.65 0.22,-0.982 0.06,-0.313 0.115,-0.616 0.171,-0.944 l 0.029,-0.143 c 0.055,-0.303 0.099,-0.611 0.149,-0.93 0.027,-0.185 0.053,-0.37 0.08,-0.555 l 0.028,-0.211 c 0.21,-1.59 0.352,-3.272 0.44,-5.092 l 0.01,-0.088 -0.003,-0.042 0.007,-0.036 0.001,-0.026 0.114,-4.92 0.002,-0.026 -0.003,-0.042 -0.002,-0.135 0.004,-0.238 0.001,-22.922 0.006,-0.01 -21.207,-12.417 8.697,-5.016 4.491,-2.593 4.013,-2.321 c 0.543,-0.315 1.068,-0.6 1.562,-0.876 0.402,-0.209 0.777,-0.42 1.151,-0.605 1.697,-0.878 3.085,-1.454 4.186,-1.74 0.158,-0.042 0.295,-0.07 0.437,-0.109 0.536,-0.118 1.004,-0.142 1.38,-0.099 0.263,0.031 0.401,0.232 0.601,0.347 l 21.248,12.254 c 0.371,0.214 0.629,0.577 0.8,1.184 0.047,0.174 0.092,0.374 0.131,0.583 0.034,0.22 0.061,0.45 0.087,0.705 0.018,0.131 0.02,0.266 0.033,0.406 0.015,0.276 0.028,0.577 0.039,0.905 0.012,0.327 0.021,0.681 0.014,1.064 0,0.949 -0.041,1.807 -0.117,2.633 -0.012,0.207 -0.035,0.408 -0.057,0.608 -0.022,0.201 -0.039,0.392 -0.072,0.587 -0.022,0.201 -0.049,0.386 -0.082,0.581 -0.027,0.185 -0.059,0.38 -0.086,0.565 -0.069,0.374 -0.133,0.739 -0.202,1.113 -0.073,0.359 -0.152,0.727 -0.232,1.096 -0.012,0.02 -0.013,0.046 -0.015,0.072 1.709,-3.932 2.729,-8.222 2.725,-12.22 0.004,-0.586 -0.018,-1.173 -0.06,-1.679 -0.184,-4.544 -1.051,-7.116 -1.812,-9.386 -0.735,-2.176 -1.375,-4.055 -1.376,-7.825 0,-4.932 0.008,-7.654 10.483,-13.689 l 17.11,-9.796 21.282,12.287 10e-4,87.067 c 0.001,7.245 -4.422,15.692 -9.859,18.835 l -65.298,37.698 -0.008,-22.927 c 0.003,-0.145 0.001,-0.28 0.005,-0.425 l -0.005,-0.27 0.002,-0.026 -0.008,-0.032 -0.111,-4.461 -0.003,-0.042 0.007,-0.036 c -0.107,-1.852 -0.265,-3.454 -0.491,-4.868 l -0.024,-0.121 c -0.01,-0.099 -0.029,-0.204 -0.045,-0.293 -0.062,-0.356 -0.135,-0.693 -0.208,-1.029 l -0.021,-0.079 c -0.037,-0.168 -0.073,-0.336 -0.116,-0.494 -0.08,-0.3 -0.157,-0.585 -0.249,-0.865 -0.061,-0.196 -0.122,-0.391 -0.198,-0.582 -0.094,-0.255 -0.187,-0.509 -0.298,-0.734 -0.077,-0.191 -0.165,-0.362 -0.267,-0.555 -0.107,-0.209 -0.214,-0.417 -0.338,-0.596 -0.1,-0.151 -0.195,-0.287 -0.297,-0.412 l -0.053,-0.071 -0.077,-0.098 c -0.106,-0.141 -0.207,-0.267 -0.314,-0.382 -0.22,-0.221 -0.438,-0.4 -0.646,-0.547 -0.169,-0.124 -0.354,-0.244 -0.616,-0.369 -0.171,-0.099 -0.367,-0.198 -0.6,-0.28 -0.128,-0.034 -0.265,-0.073 -0.409,-0.102 l -0.088,-0.01 c -0.199,-0.048 -0.414,-0.092 -0.657,-0.112 -0.181,-0.011 -0.367,-0.012 -0.56,-0.003 -0.238,-0.004 -0.478,0.018 -0.734,0.044 -0.188,0.025 -0.382,0.06 -0.592,0.099 -0.257,0.052 -0.542,0.128 -0.826,0.204 l -0.079,0.021 c -0.164,0.052 -0.338,0.099 -0.513,0.171 -0.344,0.109 -0.685,0.26 -0.998,0.386 l -0.144,0.064 c -0.128,0.06 -0.266,0.114 -0.4,0.184 -0.48,0.23 -0.951,0.467 -1.429,0.739 l -0.016,0.004 -0.155,0.084 -0.049,0.038 -0.214,0.117 -0.006,0.01 c -1.978,1.157 -3.76,2.507 -5.564,4.219 l -0.121,0.117 c -0.088,0.083 -0.176,0.166 -0.264,0.249 l -0.149,0.142 c -0.887,0.865 -1.69,1.724 -2.572,2.672 -1.802,1.94 -3.36,3.62 -5.88,5.253 l -0.043,0.029 -0.043,0.029 c -0.265,0.181 -0.498,0.354 -0.713,0.471 -0.676,0.385 -1.324,0.626 -1.924,0.694 -0.22,0.034 -0.444,0.051 -0.656,0.049 -0.212,-0.002 -0.423,-0.031 -0.613,-0.073 -0.358,-0.09 -0.692,-0.229 -0.997,-0.418 z" />
				<path
   id="XMLID_15034_"
   d="m 254.357,253.198 -21.207,-12.417 8.697,-5.016 4.491,-2.593 4.013,-2.321 c 0.543,-0.315 1.068,-0.6 1.562,-0.876 0.402,-0.209 0.777,-0.42 1.151,-0.605 1.697,-0.878 3.085,-1.454 4.186,-1.74 0.158,-0.042 0.295,-0.07 0.437,-0.109 0.536,-0.118 1.004,-0.142 1.38,-0.099 0.263,0.031 0.401,0.232 0.601,0.347 l 21.192,12.235 c -0.07,-0.041 -0.156,-0.077 -0.238,-0.097 -0.096,-0.042 -0.204,-0.064 -0.333,-0.072 l -0.01,-0.006 c -0.283,-0.043 -0.61,-0.031 -0.992,0.029 -0.262,0.036 -0.534,0.092 -0.825,0.179 -1.639,0.431 -3.918,1.507 -6.905,3.231 l -4.013,2.321 -4.497,2.603 z"
   style="fill:#455a64;fill-opacity:1" />
				<path
   id="XMLID_15000_"
   d="m 281.796,276.93 c -1.954,-2.017 -3.026,-5.367 -3.02,-9.436 -0.005,-0.552 0.017,-1.121 0.074,-1.751 0.002,-0.031 0.009,-0.043 0.011,-0.075 0.039,-0.963 0.097,-1.932 0.209,-2.966 0.031,-0.305 0.067,-0.592 0.11,-0.89 0.069,-0.623 0.162,-1.232 0.265,-1.802 0.082,-0.534 0.176,-1.061 0.276,-1.57 0.06,-0.272 0.113,-0.532 0.16,-0.78 0.236,-1.108 0.491,-2.221 0.775,-3.414 0.189,-0.747 0.364,-1.47 0.52,-2.188 l 0.007,-0.012 c 1.696,-3.917 2.71,-8.164 2.71,-12.139 -0.003,-0.583 -0.036,-1.168 -0.069,-1.672 -0.184,-4.551 -1.058,-7.123 -1.812,-9.401 -0.735,-2.17 -1.362,-4.051 -1.368,-7.819 10e-4,-4.928 10e-4,-7.643 10.478,-13.698 l 17.109,-9.789 21.282,12.287 -17.185,9.922 c -10.477,6.055 -10.477,8.77 -10.478,13.698 -0.001,3.781 0.633,5.65 1.368,7.819 0.754,2.277 1.628,4.85 1.812,9.401 0.033,0.503 0.066,1.089 0.057,1.665 0.009,9.669 -5.891,20.952 -13.151,25.13 -3.931,2.273 -7.631,2.076 -10.14,-0.52 z"
   style="fill:#455a64;fill-opacity:1" />
				<path
   id="XMLID_15038_"
   d="M 223.22644,314.459 201.529,301.06048 c 0.10501,-0.16902 0.22531,-0.34132 0.33032,-0.51034 0.27528,-0.38384 0.55462,-0.75024 0.84927,-1.09373 0.14681,-0.17121 0.29464,-0.3435 0.44553,-0.49725 0.15292,-0.18211 0.32013,-0.34132 0.48223,-0.48962 0.44655,-0.42419 0.91043,-0.77859 1.37635,-1.05993 l 0.006,-0.0109 c 0.17026,-0.11341 0.3395,-0.19846 0.56176,-0.3086 0.0866,-0.0338 0.157,-0.0632 0.24366,-0.0971 l 0.0438,-0.0305 0.054,-0.0251 c 1.08578,-0.59758 2.00437,-0.96288 2.84752,-1.18534 0.11316,-0.0327 0.23551,-0.0589 0.34867,-0.0905 0.93796,-0.22245 1.79844,-0.30314 2.71295,-0.38057 2.30513,-0.17992 4.90287,-0.39802 9.06456,-2.95842 0.23041,-0.1494 0.47713,-0.30315 0.71366,-0.46345 0.20798,-0.13304 0.40679,-0.27371 0.61069,-0.42419 0.15395,-0.10905 0.3079,-0.21809 0.45267,-0.33259 0.0163,-0.004 0.0377,-0.0196 0.0438,-0.0316 0.0326,-0.01 0.0438,-0.0316 0.0601,-0.036 0.24775,-0.18211 0.50263,-0.37512 0.75241,-0.58558 0.24366,-0.19955 0.48733,-0.39802 0.731,-0.59757 0.0398,-0.048 0.0734,-0.0861 0.11724,-0.11668 0.0438,-0.0316 0.0775,-0.0687 0.11113,-0.10578 l 0.0938,-0.0731 c 0.10603,-0.0949 0.19575,-0.18538 0.29057,-0.28679 0.0999,-0.084 0.20594,-0.17884 0.29566,-0.26935 0.18963,-0.17447 0.36906,-0.35549 0.5536,-0.54741 0.0795,-0.0971 0.17536,-0.19846 0.25896,-0.27698 0.0398,-0.048 0.0734,-0.0861 0.11724,-0.11668 0.14681,-0.1712 0.29362,-0.34349 0.44145,-0.51469 0.18046,-0.20937 0.36193,-0.41765 0.53831,-0.64447 l 0.0734,-0.0861 c 0.0907,-0.11886 0.18861,-0.24754 0.29566,-0.37076 0.13253,-0.19519 0.29158,-0.38821 0.43023,-0.5943 l 21.71784,13.4116 c -0.0234,0.0436 -0.051,0.0698 -0.0856,0.10796 -0.14376,0.217 -0.29872,0.42746 -0.45369,0.63792 -0.10195,0.11232 -0.19269,0.23118 -0.28445,0.34895 l -0.0795,0.0971 c -0.32421,0.39802 -0.65147,0.77859 -0.98384,1.14171 -0.0734,0.0862 -0.14579,0.14286 -0.21308,0.2181 -0.0459,0.0589 -0.10705,0.12322 -0.15292,0.1821 -0.17944,0.18102 -0.37519,0.3664 -0.55462,0.54633 -0.19575,0.18538 -0.38538,0.35985 -0.59642,0.54959 l -0.0836,0.0796 c -0.0775,0.0687 -0.16211,0.14831 -0.24979,0.21046 -0.47305,0.42201 -0.96039,0.82003 -1.46301,1.19515 -0.0163,0.004 -0.0561,0.0523 -0.11011,0.0774 -0.60763,0.46999 -1.20099,0.86147 -1.76989,1.20933 -0.26303,0.15811 -0.51893,0.30642 -0.75954,0.44927 -0.25692,0.14721 -0.5016,0.27261 -0.73609,0.40456 -2.1257,1.13626 -3.81811,1.62152 -5.29641,1.86033 -0.31503,0.0534 -0.63414,0.0894 -0.93286,0.13849 -0.15395,0.008 -0.313,0.0251 -0.47306,0.0436 -0.28649,0.0273 -0.57399,0.0534 -0.8615,0.0807 l -0.0102,-0.007 c -1.25299,0.10032 -2.39588,0.19628 -3.80893,0.69462 -0.37213,0.13413 -0.7728,0.29552 -1.20711,0.49398 l -0.006,0.0109 c -0.27731,0.13522 -0.57603,0.2857 -0.88698,0.45799 l -0.0489,0.0142 -0.0438,0.0316 c -0.0867,0.0338 -0.16312,0.0742 -0.24978,0.10796 -0.21716,0.0992 -0.3915,0.19519 -0.56176,0.3086 -0.47714,0.30315 -0.94713,0.66845 -1.41,1.09701 -0.15598,0.13739 -0.30687,0.29115 -0.44859,0.45145 -0.15088,0.15484 -0.30891,0.3195 -0.44553,0.49725 -0.18555,0.19192 -0.36193,0.41765 -0.52811,0.64992 -0.11316,0.13412 -0.22225,0.2857 -0.32115,0.44272 -0.0897,0.11886 -0.17026,0.24427 -0.25182,0.36858 z"
   style="fill:#263238;fill-opacity:1;stroke-width:1.0544" />
			</g>
		</g>
		<g
   id="XMLID_14920_">
			<defs
   id="defs3502">
				<path
   id="XMLID_14922_"
   d="m 247.466,247.998 0.003,-22.929 -0.003,-0.05 -0.003,-0.05 0.227,-7.027 -0.001,-0.081 0.004,-0.063 c 0.016,-0.168 0.026,-0.324 0.035,-0.481 l 0.02,-0.231 c 0.045,-0.442 0.084,-0.873 0.134,-1.296 0.013,-0.219 0.038,-0.43 0.076,-0.635 l 0.018,-0.2 c 0.043,-0.411 0.106,-0.827 0.155,-1.22 0.041,-0.267 0.082,-0.534 0.128,-0.782 0.077,-0.441 0.146,-0.869 0.228,-1.29 l 0.034,-0.142 c 0.035,-0.174 0.071,-0.347 0.106,-0.52 0.122,-0.576 0.269,-1.137 0.416,-1.699 0.002,-0.031 0.032,-0.111 0.049,-0.198 0.169,-0.629 0.384,-1.281 0.611,-1.926 0.025,-0.099 0.055,-0.179 0.091,-0.271 0.195,-0.534 0.421,-1.066 0.641,-1.585 0.044,-0.104 0.095,-0.22 0.158,-0.329 l 0.03,-0.08 c 0.23,-0.482 0.459,-0.963 0.72,-1.443 l 0.196,-0.339 c 0.31,-0.564 0.623,-1.079 0.972,-1.572 l 0.014,-0.024 c 0.785,-1.163 1.662,-2.208 2.623,-3.172 l 0.026,-0.017 0.073,-0.071 c 0.413,-0.408 0.884,-0.831 1.378,-1.24 l 0.106,-0.1 c 1.068,-0.87 2.167,-1.626 3.355,-2.313 1.533,-0.892 2.846,-1.459 4.011,-1.853 0.78,-0.26 1.493,-0.431 2.146,-0.555 0.995,-0.185 1.89,-0.25 2.733,-0.313 1.796,-0.143 3.351,-0.263 5.803,-1.514 l 0.045,-0.022 0.045,-0.022 c 0.341,-0.143 0.574,-0.266 0.788,-0.385 1.676,-0.972 3.25,-2.745 4.426,-5.007 0.298,-0.572 0.564,-1.145 0.787,-1.727 0.688,-1.752 1.054,-3.561 1.047,-5.229 0,-0.307 -0.015,-0.59 -0.029,-0.873 -0.014,-0.089 -0.022,-0.158 -0.042,-0.235 -0.013,-0.201 -0.033,-0.391 -0.072,-0.575 -0.013,-0.089 -0.041,-0.153 -0.042,-0.234 -0.046,-0.172 -0.085,-0.356 -0.126,-0.509 -0.021,-0.076 -0.048,-0.141 -0.063,-0.198 -0.065,-0.167 -0.118,-0.327 -0.184,-0.494 -0.022,-0.045 -0.045,-0.09 -0.067,-0.136 -0.065,-0.167 -0.156,-0.317 -0.236,-0.459 -0.022,-0.045 -0.04,-0.071 -0.069,-0.104 -0.091,-0.15 -0.19,-0.287 -0.3,-0.432 -0.024,-0.014 -0.029,-0.033 -0.047,-0.059 -0.129,-0.139 -0.254,-0.26 -0.378,-0.38 l -0.036,-0.021 c -0.137,-0.127 -0.299,-0.237 -0.457,-0.328 l 0.007,-0.012 -9.09,-5.248 c -1.601,1.402 -2.922,2.822 -4.129,4.129 -1.957,2.102 -3.64,3.926 -6.472,5.555 -1.572,0.903 -2.858,1.647 -3.791,1.108 -0.582,-0.336 -8.784,-5.074 -8.784,-5.074 -0.057,-1.972 -0.065,-4.173 -0.047,-6.473 l -0.003,-19.167 -21.282,-12.287 75.795,-43.841 27.585,15.926 -0.049,102.246 -17.186,9.922 c -10.477,6.055 -10.477,8.77 -10.478,13.698 0.006,3.769 0.633,5.65 1.368,7.819 0.766,2.284 1.628,4.85 1.812,9.401 0.039,0.491 0.066,1.089 0.069,1.672 0.006,5.223 -1.722,10.932 -4.455,15.721 l -17.388,10.048 c -0.526,-0.32 -0.998,-0.706 -1.46,-1.166 -1.942,-2.01 -3.014,-5.36 -3.02,-9.436 0.008,-0.545 0.036,-1.126 0.081,-1.763 0.007,-0.012 0.002,-0.031 0.004,-0.063 0.039,-0.963 0.097,-1.932 0.209,-2.966 0.043,-0.298 0.074,-0.604 0.11,-0.89 0.076,-0.635 0.162,-1.232 0.265,-1.802 0.082,-0.534 0.177,-1.062 0.276,-1.57 0.06,-0.272 0.113,-0.532 0.16,-0.78 0.236,-1.108 0.491,-2.221 0.788,-3.407 0.72,-3.01 1.353,-5.618 1.359,-9.38 -0.006,-3.042 -0.262,-4.354 -1.084,-4.835 -0.052,-0.03 -9.852,-5.688 -9.852,-5.688 l -16.735,9.665 z" />
			</defs>
			<clipPath
   id="XMLID_00000108268240548619590860000004621803631879691675_">
				<use
   xlink:href="#XMLID_14922_"
   style="overflow:visible"
   id="use3504"
   x="0"
   y="0"
   width="100%"
   height="100%" />
			</clipPath>
			<g
   id="XMLID_14923_"
   clip-path="url(#XMLID_00000108268240548619590860000004621803631879691675_)">
				<g
   id="XMLID_14929_">
					<path
   id="XMLID_15035_"
   style="fill:#27debf"
   d="M 287.842,268.588 266.51,256.272 c -0.1,-0.058 -0.196,-0.1 -0.291,-0.168 -1.19,-0.901 -1.742,-2.77 -1.744,-4.99 -0.007,-0.312 10e-4,-0.627 0.039,-1.087 l 0.009,-0.062 -0.001,-0.068 c 0.127,-3.322 0.708,-5.74 1.383,-8.531 0.345,-1.431 0.701,-2.95 1.018,-4.611 l 4.615,-2.669 0.177,-0.098 0.112,-0.055 0.043,-0.029 3.638,-1.949 0.037,-0.019 0.032,-0.008 0.096,-0.051 c 1.314,-0.632 2.463,-1.117 3.541,-1.457 l 0.138,-0.054 c 0.164,-0.052 0.312,-0.1 0.47,-0.143 0.195,-0.061 0.385,-0.112 0.579,-0.147 l 0.105,-0.02 c 0.221,-0.059 0.453,-0.113 0.678,-0.156 0.204,-0.029 0.408,-0.059 0.606,-0.078 0.23,-0.028 0.47,-0.05 0.698,-0.051 0.177,-0.005 0.353,-0.01 0.524,-0.005 0.223,0.008 0.449,0.032 0.716,0.079 l 0.088,0.011 c 0.108,0.022 0.231,0.04 0.339,0.062 0.255,0.067 0.515,0.15 0.813,0.282 0.096,0.042 0.162,0.067 0.238,0.097 0.689,0.358 1.29,0.892 1.792,1.596 0.039,0.049 0.071,0.108 0.114,0.173 0.204,0.318 0.396,0.656 0.555,1.029 0.037,0.075 0.074,0.15 0.101,0.219 l 0.027,0.069 c 0.149,0.367 0.281,0.764 0.411,1.186 l 0.085,0.316 c 0.113,0.453 0.223,0.957 0.299,1.496 l 0.043,0.226 c 0.187,1.297 0.284,2.703 0.277,4.29 0,5.44 -0.958,9.391 -1.8,12.888 -0.676,2.791 -1.257,5.209 -1.383,8.531 l 0.001,0.068 -0.009,0.062 c -0.038,0.459 -0.052,0.785 -0.049,1.081 -0.004,2.23 0.65,3.944 1.831,4.839 0.117,0.079 0.231,0.158 0.341,0.222 z" />
					<path
   id="XMLID_15009_"
   style="fill:#27debf"
   d="m 254.354,244.014 -21.207,-12.417 0.003,-7.831 0.006,-7.789 0.004,-7.322 c -0.005,-4.32 0.203,-7.622 0.641,-10.069 0.743,-4.089 1.86,-5.328 5.083,-7.183 2.826,-1.63 4.503,-1.757 6.452,-1.915 0.755,-0.058 1.465,-0.13 2.182,-0.237 0.194,-0.035 0.382,-0.06 0.576,-0.095 0.331,-0.063 0.657,-0.142 1.009,-0.219 0.411,-0.11 0.844,-0.234 1.31,-0.393 0.18,-0.057 0.365,-0.123 0.557,-0.2 0.726,-0.262 1.43,-0.578 2.136,-0.945 0.032,-0.008 0.069,-0.027 0.096,-0.051 0.458,-0.19 0.863,-0.384 1.25,-0.615 3.933,-2.274 7.634,-6.74 10.142,-12.242 0.167,-0.358 0.307,-0.718 0.458,-1.072 -0.172,0.182 -0.353,0.357 -0.535,0.533 0.684,-0.675 1.339,-1.392 2.031,-2.129 2.04,-2.191 4.341,-4.671 7.821,-6.926 0.39,-0.283 0.844,-0.582 1.294,-0.83 7.248,-4.196 13.156,0.271 13.152,9.932 -10e-4,4.076 -1.069,8.659 -3.015,12.908 -2.514,5.512 -6.21,9.968 -10.148,12.252 -0.382,0.221 -0.793,0.424 -1.25,0.615 -0.022,0.014 -0.059,0.033 -0.091,0.041 -0.722,0.372 -1.42,0.677 -2.142,0.955 l -0.556,0.2 c -0.466,0.159 -0.899,0.283 -1.314,0.377 -0.348,0.093 -0.668,0.162 -0.999,0.225 -0.194,0.035 -0.388,0.07 -0.576,0.095 -0.717,0.107 -1.432,0.189 -2.188,0.247 -1.943,0.148 -3.631,0.27 -6.446,1.905 -3.223,1.855 -4.35,3.089 -5.083,7.183 -0.437,2.448 -0.656,5.743 -0.657,10.073 l 0.006,7.328 v 7.779 l -0.01,-0.006 z" />
					<path
   id="XMLID_15031_"
   style="fill:#27debf"
   d="m 256.295,178.492 -21.316,-12.32 c -1.246,-0.759 -1.823,-3.926 -1.824,-11.866 l -0.084,-22.797 21.282,12.287 0.008,22.928 c -0.004,8.017 0.664,11.05 1.939,11.759 z" />
					<path
   id="XMLID_14928_"
   style="opacity:1;fill:#0061c8;fill-opacity:1"
   d="M 287.842,268.588 266.51,256.272 c -0.1,-0.058 -0.196,-0.1 -0.291,-0.168 -1.19,-0.901 -1.742,-2.77 -1.744,-4.99 -0.007,-0.312 10e-4,-0.627 0.039,-1.087 l 0.009,-0.062 -0.001,-0.068 c 0.127,-3.322 0.708,-5.74 1.383,-8.531 0.345,-1.431 0.701,-2.95 1.018,-4.611 l 4.615,-2.669 0.177,-0.098 0.112,-0.055 0.043,-0.029 3.638,-1.949 0.037,-0.019 0.032,-0.008 0.096,-0.051 c 1.314,-0.632 2.463,-1.117 3.541,-1.457 l 0.138,-0.054 c 0.164,-0.052 0.312,-0.1 0.47,-0.143 0.195,-0.061 0.385,-0.112 0.579,-0.147 l 0.105,-0.02 c 0.221,-0.059 0.453,-0.113 0.678,-0.156 0.204,-0.029 0.408,-0.059 0.606,-0.078 0.23,-0.028 0.47,-0.05 0.698,-0.051 0.177,-0.005 0.353,-0.01 0.524,-0.005 0.223,0.008 0.449,0.032 0.716,0.079 l 0.088,0.011 c 0.108,0.022 0.231,0.04 0.339,0.062 0.255,0.067 0.515,0.15 0.813,0.282 0.096,0.042 0.162,0.067 0.238,0.097 0.689,0.358 1.29,0.892 1.792,1.596 0.039,0.049 0.071,0.108 0.114,0.173 0.204,0.318 0.396,0.656 0.555,1.029 0.037,0.075 0.074,0.15 0.101,0.219 l 0.027,0.069 c 0.149,0.367 0.281,0.764 0.411,1.186 l 0.085,0.316 c 0.113,0.453 0.223,0.957 0.299,1.496 l 0.043,0.226 c 0.187,1.297 0.284,2.703 0.277,4.29 0,5.44 -0.958,9.391 -1.8,12.888 -0.676,2.791 -1.257,5.209 -1.383,8.531 l 0.001,0.068 -0.009,0.062 c -0.038,0.459 -0.052,0.785 -0.049,1.081 -0.004,2.23 0.65,3.944 1.831,4.839 0.117,0.079 0.231,0.158 0.341,0.222 z" />
					<path
   id="XMLID_14927_"
   style="opacity:1;fill:#4c97e8;fill-opacity:1"
   d="m 254.354,244.014 -21.207,-12.417 0.003,-7.831 0.006,-7.789 0.004,-7.322 c -0.005,-4.32 0.203,-7.622 0.641,-10.069 0.743,-4.089 1.86,-5.328 5.083,-7.183 2.826,-1.63 4.503,-1.757 6.452,-1.915 0.755,-0.058 1.465,-0.13 2.182,-0.237 0.194,-0.035 0.382,-0.06 0.576,-0.095 0.331,-0.063 0.657,-0.142 1.009,-0.219 0.411,-0.11 0.844,-0.234 1.31,-0.393 0.18,-0.057 0.365,-0.123 0.557,-0.2 0.726,-0.262 1.43,-0.578 2.136,-0.945 0.032,-0.008 0.069,-0.027 0.096,-0.051 0.458,-0.19 0.863,-0.384 1.25,-0.615 3.933,-2.274 7.634,-6.74 10.142,-12.242 0.167,-0.358 0.307,-0.718 0.458,-1.072 -0.172,0.182 -0.353,0.357 -0.535,0.533 0.684,-0.675 1.339,-1.392 2.031,-2.129 2.04,-2.191 4.341,-4.671 7.821,-6.926 0.39,-0.283 0.844,-0.582 1.294,-0.83 7.248,-4.196 13.156,0.271 13.152,9.932 -10e-4,4.076 -1.069,8.659 -3.015,12.908 -2.514,5.512 -6.21,9.968 -10.148,12.252 -0.382,0.221 -0.793,0.424 -1.25,0.615 -0.022,0.014 -0.059,0.033 -0.091,0.041 -0.722,0.372 -1.42,0.677 -2.142,0.955 l -0.556,0.2 c -0.466,0.159 -0.899,0.283 -1.314,0.377 -0.348,0.093 -0.668,0.162 -0.999,0.225 -0.194,0.035 -0.388,0.07 -0.576,0.095 -0.717,0.107 -1.432,0.189 -2.188,0.247 -1.943,0.148 -3.631,0.27 -6.446,1.905 -3.223,1.855 -4.35,3.089 -5.083,7.183 -0.437,2.448 -0.656,5.743 -0.657,10.073 l 0.006,7.328 v 7.779 l -0.01,-0.006 z" />
					<path
   id="XMLID_14917_"
   style="opacity:1;fill:#0061c8;fill-opacity:1"
   d="m 256.295,178.492 -21.316,-12.32 c -1.246,-0.759 -1.823,-3.926 -1.824,-11.866 l -0.084,-22.797 21.282,12.287 0.008,22.928 c -0.004,8.017 0.664,11.05 1.939,11.759 z" />
					<path
   id="XMLID_15048_"
   style="fill:#006bde;fill-opacity:1;stroke:#006bde;stroke-opacity:1"
   d="m 288.023,268.692 -0.16,-0.093 c -0.01,-0.006 -0.01,-0.006 -0.02,-0.012 -0.11,-0.064 -0.225,-0.143 -0.339,-0.223 -1.181,-0.895 -1.835,-2.61 -1.831,-4.839 -0.003,-0.296 0.011,-0.622 0.049,-1.081 l 0.009,-0.062 -10e-4,-0.068 c 0.127,-3.322 0.707,-5.74 1.383,-8.531 0.843,-3.497 1.801,-7.448 1.8,-12.888 0.007,-1.587 -0.09,-2.992 -0.277,-4.29 l -0.043,-0.226 c -0.077,-0.539 -0.186,-1.043 -0.299,-1.496 l -0.085,-0.316 c -0.13,-0.423 -0.262,-0.82 -0.411,-1.186 l -0.027,-0.069 c -0.027,-0.069 -0.064,-0.144 -0.101,-0.219 -0.159,-0.372 -0.351,-0.711 -0.555,-1.029 -0.043,-0.065 -0.076,-0.124 -0.114,-0.173 -0.502,-0.704 -1.103,-1.238 -1.792,-1.596 -0.076,-0.031 -0.142,-0.055 -0.238,-0.097 -0.298,-0.132 -0.557,-0.215 -0.813,-0.282 -0.108,-0.022 -0.231,-0.04 -0.339,-0.062 l -0.088,-0.011 c -0.267,-0.047 -0.494,-0.071 -0.716,-0.079 -0.171,-0.005 -0.347,0 -0.524,0.005 -0.228,0.002 -0.468,0.024 -0.698,0.051 -0.198,0.019 -0.402,0.048 -0.606,0.078 -0.226,0.044 -0.457,0.097 -0.678,0.156 l -0.105,0.02 c -0.194,0.035 -0.384,0.086 -0.579,0.147 -0.158,0.042 -0.306,0.091 -0.47,0.143 l -0.138,0.054 c -1.078,0.34 -2.228,0.826 -3.541,1.457 l -0.096,0.051 -0.032,0.008 -0.037,0.019 -3.638,1.949 -0.043,0.029 -0.112,0.055 -0.177,0.098 -4.615,2.669 -12.571,7.258 -0.007,-7.836 0.01,0.006 v -7.779 l -0.006,-7.328 c 0.001,-4.33 0.219,-7.626 0.657,-10.073 0.733,-4.094 1.86,-5.328 5.083,-7.183 2.816,-1.636 4.503,-1.757 6.446,-1.905 0.756,-0.058 1.471,-0.14 2.188,-0.247 0.188,-0.025 0.382,-0.06 0.576,-0.095 0.331,-0.063 0.651,-0.132 0.999,-0.225 0.415,-0.094 0.848,-0.219 1.314,-0.377 l 0.556,-0.2 c 0.722,-0.278 1.42,-0.584 2.142,-0.955 0.032,-0.008 0.069,-0.027 0.091,-0.041 0.457,-0.19 0.869,-0.394 1.25,-0.615 3.938,-2.284 7.634,-6.74 10.148,-12.252 1.946,-4.25 3.014,-8.832 3.015,-12.908 0.004,-9.661 -5.904,-14.128 -13.152,-9.932 -0.45,0.248 -0.904,0.547 -1.294,0.83 -3.48,2.254 -5.781,4.735 -7.821,6.926 -0.693,0.736 -1.348,1.454 -2.031,2.129 -1.025,1.012 -2.103,1.953 -3.458,2.842 -0.151,0.1 -0.297,0.19 -0.452,0.274 -0.167,0.104 -0.34,0.218 -0.517,0.316 -0.596,0.338 -1.144,0.663 -1.651,0.891 -0.175,0.072 -0.335,0.141 -0.489,0.199 -0.16,0.068 -0.318,0.111 -0.464,0.133 -0.148,0.048 -0.289,0.06 -0.424,0.063 -0.27,0.005 -0.531,-0.053 -0.762,-0.186 -1.275,-0.709 -1.943,-3.742 -1.939,-11.759 l -0.008,-22.928 -21.282,-12.287 65.383,-37.822 c 0.236,-0.131 0.456,-0.258 0.691,-0.363 0.225,-0.111 0.443,-0.212 0.66,-0.287 0,0 0,0 0.006,-0.01 0.233,-0.079 0.444,-0.144 0.656,-0.21 0.211,-0.065 0.427,-0.114 0.631,-0.144 0.273,-0.056 0.554,-0.081 0.814,-0.091 1.149,-0.045 2.194,0.251 3.103,0.829 l 20.981,12.113 0.004,0.016 c 0.633,0.339 1.185,0.818 1.672,1.433 0.154,0.196 0.297,0.412 0.429,0.622 0.09,0.145 0.18,0.291 0.258,0.456 0.162,0.321 0.309,0.646 0.448,1.007 0.057,0.18 0.123,0.365 0.174,0.555 0.347,1.136 0.532,2.459 0.531,3.942 l 10e-4,87.067 -17.196,9.921 c -0.108,0.071 -0.21,0.133 -0.312,0.194 l -0.204,0.122 -0.032,0.008 -0.021,0.014 -3.384,2.11 -0.037,0.018 -0.027,0.024 c -1.453,0.965 -2.739,1.92 -3.914,2.913 l -0.082,0.073 c -0.07,0.053 -0.131,0.111 -0.202,0.164 -0.301,0.267 -0.603,0.534 -0.894,0.807 l -0.072,0.079 c -0.131,0.111 -0.258,0.239 -0.379,0.356 -0.27,0.259 -0.529,0.523 -0.779,0.793 -0.166,0.171 -0.338,0.353 -0.493,0.53 -0.25,0.27 -0.483,0.536 -0.713,0.818 -0.152,0.193 -0.297,0.376 -0.476,0.594 -0.225,0.298 -0.445,0.585 -0.654,0.879 -0.124,0.169 -0.244,0.354 -0.358,0.528 l -0.081,0.14 -0.097,0.145 c -0.171,0.249 -0.347,0.508 -0.503,0.779 -0.11,0.191 -0.226,0.391 -0.326,0.587 l -0.077,0.156 c -0.314,0.567 -0.614,1.156 -0.878,1.752 l -0.061,0.152 c -0.119,0.252 -0.228,0.51 -0.331,0.758 l -0.006,0.01 c -0.099,0.264 -0.192,0.518 -0.281,0.787 l -0.08,0.208 c -0.106,0.3 -0.208,0.615 -0.304,0.92 -0.098,0.331 -0.189,0.652 -0.277,0.989 -0.088,0.337 -0.175,0.674 -0.253,1.017 -0.072,0.333 -0.144,0.666 -0.2,0.994 -0.073,0.359 -0.127,0.729 -0.18,1.099 l -0.009,0.062 c -0.054,0.303 -0.099,0.611 -0.133,0.925 -0.049,0.386 -0.078,0.784 -0.115,1.217 l -0.02,0.243 c -0.024,0.227 -0.038,0.459 -0.052,0.692 -0.03,0.491 -0.04,1.019 -0.056,1.718 l 0.004,0.109 c -0.002,0.119 -0.01,0.248 -0.012,0.367 0,5.44 0.96,8.293 1.804,10.812 0.667,2.016 1.252,3.757 1.381,7.053 l 0.007,0.057 -0.003,0.052 c 0.027,0.323 0.055,0.646 0.059,0.916 -0.002,4.61 -2.818,9.975 -6.273,11.976 -0.72,0.413 -1.424,0.661 -2.076,0.726 -0.157,0.017 -0.297,0.029 -0.442,0.025 -0.026,-10e-4 -0.052,-0.003 -0.077,-0.005 -0.093,0 -0.187,-10e-4 -0.278,-0.027 -0.083,0.005 -0.165,-0.015 -0.247,-0.035 -0.062,-0.009 -0.133,-0.024 -0.199,-0.048 -0.082,-0.02 -0.163,-0.041 -0.24,-0.071 -0.062,-0.009 -0.118,-0.028 -0.178,-0.063 -0.057,-0.015 -0.123,-0.04 -0.173,-0.069 z" />
				</g>
				<path
   id="XMLID_15043_"
   style="opacity:0.3;fill:#ffffff"
   d="m 254.354,143.796 -21.282,-12.287 65.383,-37.822 c 0.236,-0.131 0.456,-0.258 0.691,-0.363 0.225,-0.111 0.443,-0.212 0.66,-0.287 0,0 0,0 0.006,-0.01 0.233,-0.079 0.444,-0.144 0.656,-0.21 0.211,-0.065 0.427,-0.114 0.631,-0.144 0.273,-0.056 0.554,-0.081 0.814,-0.091 1.149,-0.045 2.194,0.251 3.103,0.829 l 20.761,11.986 c -0.186,-0.094 -0.374,-0.162 -0.568,-0.221 -0.046,-0.013 -0.082,-0.02 -0.132,-0.049 -0.184,-0.052 -0.367,-0.105 -0.552,-0.132 -0.062,-0.009 -0.123,-0.018 -0.191,-0.017 -0.118,-0.028 -0.247,-0.036 -0.376,-0.043 -0.01,-0.006 -0.026,-0.002 -0.042,0.003 -0.113,-0.012 -0.233,-0.014 -0.352,-0.016 -0.026,-0.002 -0.062,-0.009 -0.093,-10e-4 -0.181,-0.011 -0.353,0.01 -0.526,0.031 -0.131,0.018 -0.262,0.036 -0.392,0.054 -0.261,0.036 -0.524,0.098 -0.799,0.18 -0.142,0.038 -0.275,0.082 -0.407,0.126 -0.249,0.084 -0.515,0.197 -0.781,0.311 -0.293,0.138 -0.599,0.296 -0.915,0.474 z" />
			</g>
		</g>
		<g
   id="XMLID_14887_">
			<defs
   id="defs3519">
				<path
   id="XMLID_14888_"
   d="m 172.3,291.394 -21.282,-12.287 0.081,-87.215 c 0.002,-3.279 0.917,-6.823 2.431,-10.005 l -0.012,-0.007 c 1.815,-3.816 4.477,-7.111 7.439,-8.827 l 65.223,-37.566 21.282,12.287 0.003,19.167 0.047,6.473 8.783,5.069 c 0.942,0.545 2.216,-0.191 3.793,-1.104 2.832,-1.63 4.515,-3.453 6.472,-5.555 1.207,-1.307 2.52,-2.714 4.129,-4.129 l 9.09,5.248 -0.007,0.012 c 0.073,0.042 0.133,0.077 0.199,0.131 0.031,0.002 0.056,0.016 0.073,0.042 0.085,0.049 0.163,0.11 0.221,0.176 0.316,0.263 0.579,0.593 0.794,0.975 0.069,0.105 0.138,0.209 0.181,0.331 0.052,0.078 0.084,0.162 0.122,0.264 0.16,0.367 0.292,0.782 0.383,1.239 0.015,0.057 0.024,0.127 0.032,0.196 0.047,0.254 0.081,0.532 0.114,0.81 0.014,0.283 0.029,0.566 0.029,0.873 0.002,0.276 -0.003,0.564 -0.032,0.838 -0.024,0.293 -0.048,0.587 -0.084,0.873 -0.036,0.286 -0.091,0.578 -0.146,0.869 -0.044,0.217 -0.089,0.434 -0.152,0.656 -0.035,0.173 -0.076,0.328 -0.129,0.475 -0.298,1.104 -0.734,2.194 -1.292,3.245 -1.176,2.262 -2.75,4.036 -4.426,5.007 -0.214,0.119 -0.447,0.243 -0.788,0.385 l -0.045,0.022 -0.045,0.022 c -2.451,1.251 -4.007,1.371 -5.803,1.514 -0.635,0.037 -1.285,0.098 -2.006,0.199 -0.228,0.03 -0.474,0.066 -0.728,0.113 -1.407,0.254 -3.036,0.752 -5.049,1.803 -0.181,0.089 -0.362,0.179 -0.538,0.288 -0.188,0.102 -0.376,0.203 -0.571,0.317 -1.189,0.687 -2.287,1.443 -3.355,2.313 l -0.106,0.1 c -0.495,0.409 -0.965,0.832 -1.378,1.24 l -0.073,0.071 -0.026,0.017 c -0.961,0.964 -1.839,2.009 -2.623,3.172 l -0.014,0.024 c -0.349,0.493 -0.662,1.007 -0.972,1.572 l -0.196,0.339 c -0.261,0.48 -0.49,0.961 -0.72,1.443 l -0.03,0.08 c -0.063,0.109 -0.114,0.225 -0.158,0.329 -0.219,0.52 -0.446,1.052 -0.641,1.585 -0.037,0.092 -0.067,0.172 -0.091,0.271 -0.227,0.645 -0.442,1.296 -0.611,1.926 -0.018,0.087 -0.048,0.166 -0.049,0.198 -0.147,0.562 -0.293,1.124 -0.416,1.699 -0.035,0.173 -0.071,0.347 -0.106,0.52 l -0.034,0.142 c -0.082,0.421 -0.151,0.85 -0.228,1.29 -0.046,0.248 -0.087,0.515 -0.128,0.782 -0.049,0.392 -0.111,0.808 -0.155,1.22 l -0.018,0.2 c -0.037,0.205 -0.063,0.416 -0.076,0.635 -0.051,0.423 -0.089,0.854 -0.134,1.296 l -0.02,0.231 c -0.009,0.156 -0.019,0.312 -0.035,0.481 l -0.004,0.063 0.001,0.081 -0.227,7.027 0.003,0.05 0.003,0.05 -0.003,22.929 -6.034,3.481 -1.916,1.108 -3.766,2.156 -5.489,3.182 c -3.825,2.203 -6.463,3.33 -8.101,3.451 -0.283,0.014 -0.528,0.019 -0.757,-0.033 -0.186,-0.042 -0.345,-0.102 -0.49,-0.186 l -0.014,0.024 -0.012,-0.007 -7.826,-4.583 -0.012,-0.007 c 0.002,-0.031 0.004,-0.062 0.013,-0.106 0.086,-1.017 0.207,-1.982 0.35,-2.901 0.091,-0.578 0.187,-1.136 0.294,-1.656 0.299,-1.637 0.663,-3.108 1.004,-4.51 0.676,-2.793 1.259,-5.204 1.371,-8.533 l 0.004,-0.063 0.011,-0.075 c 0.028,-0.469 0.047,-0.781 0.052,-1.069 -0.004,-2.232 -0.659,-3.952 -1.841,-4.844 -0.054,-0.047 -0.114,-0.082 -0.175,-0.117 l -0.158,-0.091 0.007,-0.012 -8.75,-5.052 c -2.313,2.494 -4.309,5.673 -5.776,9.108 -0.196,0.452 -0.381,0.911 -0.558,1.358 -0.172,0.466 -0.344,0.932 -0.497,1.393 -0.023,0.068 -0.046,0.135 -0.069,0.203 -0.16,0.473 -0.301,0.941 -0.442,1.409 -0.129,0.475 -0.258,0.95 -0.367,1.42 -0.088,0.321 -0.152,0.655 -0.216,0.99 -0.076,0.328 -0.133,0.65 -0.178,0.98 -0.121,0.657 -0.211,1.317 -0.257,1.985 -0.047,0.361 -0.081,0.729 -0.097,1.091 -0.028,0.469 -0.049,0.925 -0.051,1.376 0,0.307 0.008,0.602 0.022,0.885 0.014,0.283 0.036,0.554 0.052,0.806 0.012,0.427 0.038,0.83 0.071,1.221 0.072,0.995 0.169,1.891 0.314,2.702 0.054,0.354 0.108,0.709 0.176,1.039 0.358,1.758 0.809,3.133 1.246,4.42 0.517,1.511 0.995,2.95 1.227,5.039 l 0.02,0.189 0.008,0.069 0.001,0.082 c 0.008,0.069 0.017,0.139 0.025,0.208 0.056,0.743 0.087,1.472 0.085,2.231 -0.001,4.928 -0.001,7.643 -10.478,13.698 z" />
			</defs>
			<clipPath
   id="XMLID_00000039815911793520321450000000590281748578246587_">
				<use
   xlink:href="#XMLID_14888_"
   style="overflow:visible"
   id="use3521"
   x="0"
   y="0"
   width="100%"
   height="100%" />
			</clipPath>
			<g
   id="XMLID_14889_"
   clip-path="url(#XMLID_00000039815911793520321450000000590281748578246587_)">
				<path
   id="XMLID_15032_"
   style="fill:#27debf"
   d="m 220.886,261.167 -21.211,-12.433 0.006,-0.01 c -0.826,-0.49 -1.092,-1.86 -1.09,-4.826 0,-2.847 0.364,-5.029 0.865,-7.239 -0.638,1.476 -1.181,2.994 -1.615,4.534 2.038,-7.351 6.664,-14.344 12.036,-17.444 3.514,-2.035 6.816,-2.106 9.302,-0.23 2.496,1.882 3.861,5.49 3.854,10.178 0.004,0.457 -0.023,0.896 -0.052,1.293 l -0.003,0.145 -0.005,0.077 c -0.006,0.103 -0.008,0.223 -0.014,0.326 -0.035,1.009 -0.115,2.005 -0.225,3.051 -0.015,0.165 -0.036,0.34 -0.061,0.499 l -0.019,0.149 c -0.089,0.71 -0.183,1.405 -0.297,2.088 -0.076,0.41 -0.153,0.82 -0.224,1.221 -0.077,0.41 -0.163,0.815 -0.244,1.209 -0.223,1.034 -0.473,2.093 -0.731,3.187 -0.736,3.01 -1.359,5.618 -1.367,9.382 0.004,2.983 0.253,4.357 1.095,4.843 z" />
				<path
   id="XMLID_15010_"
   style="fill:#27debf"
   d="m 172.295,291.389 -21.272,-12.281 0.08,-87.207 c -0.01,-3.294 0.913,-6.837 2.426,-10.014 l 21.262,12.276 c -1.552,3.221 -2.494,6.82 -2.492,10.15 z" />
				<path
   id="XMLID_14892_"
   style="fill:#263238"
   d="m 220.886,261.167 -21.211,-12.433 0.006,-0.01 c -0.826,-0.49 -1.092,-1.86 -1.09,-4.826 0,-2.847 0.364,-5.029 0.865,-7.239 v 0 c 2.404,-5.569 6.175,-10.459 10.421,-12.91 3.514,-2.035 6.816,-2.106 9.302,-0.23 2.496,1.882 3.861,5.49 3.854,10.178 0.004,0.457 -0.023,0.896 -0.052,1.293 l -0.003,0.145 -0.005,0.077 c -0.006,0.103 -0.008,0.223 -0.014,0.326 -0.035,1.009 -0.115,2.005 -0.225,3.051 -0.015,0.165 -0.036,0.34 -0.061,0.499 l -0.019,0.149 c -0.089,0.71 -0.183,1.405 -0.297,2.088 -0.076,0.41 -0.153,0.82 -0.224,1.221 -0.077,0.41 -0.163,0.815 -0.244,1.209 -0.223,1.034 -0.473,2.093 -0.731,3.187 -0.736,3.01 -1.359,5.618 -1.367,9.382 0.004,2.983 0.253,4.357 1.095,4.843 z" />
				<path
   id="XMLID_14891_"
   style="fill:#263238"
   d="m 172.295,291.389 -21.272,-12.281 0.08,-87.207 c -0.01,-3.294 0.913,-6.837 2.426,-10.014 l 21.262,12.276 c -1.552,3.221 -2.494,6.82 -2.492,10.15 z" />
				<path
   id="XMLID_15053_"
   style="fill:#37474f;stroke:#37474f;stroke-opacity:1"
   d="m 172.295,291.389 0.004,-87.077 c -0.002,-3.329 0.94,-6.929 2.492,-10.15 l -21.262,-12.276 c 0.06,-0.126 0.113,-0.242 0.173,-0.368 0.09,-0.202 0.19,-0.398 0.294,-0.579 0.14,-0.266 0.281,-0.533 0.431,-0.794 0.18,-0.311 0.359,-0.622 0.558,-0.921 l 0.116,-0.201 c 0.023,-0.04 0.062,-0.084 0.085,-0.124 0.178,-0.285 0.372,-0.574 0.569,-0.848 0.012,-0.02 0.033,-0.034 0.039,-0.044 0.062,-0.084 0.124,-0.169 0.186,-0.253 0.103,-0.155 0.215,-0.303 0.338,-0.446 0.113,-0.149 0.225,-0.298 0.348,-0.441 0.039,-0.044 0.068,-0.094 0.101,-0.129 0.185,-0.228 0.37,-0.455 0.575,-0.671 0.078,-0.089 0.16,-0.162 0.238,-0.25 0.051,-0.064 0.111,-0.123 0.172,-0.182 0.039,-0.044 0.072,-0.079 0.111,-0.123 0.066,-0.069 0.127,-0.127 0.203,-0.19 -0.004,-0.016 0.006,-0.01 0.006,-0.01 0.127,-0.127 0.248,-0.244 0.369,-0.362 0.033,-0.034 0.066,-0.069 0.109,-0.097 0.11,-0.097 0.209,-0.2 0.313,-0.287 0.033,-0.034 0.076,-0.063 0.104,-0.087 0.012,-0.02 0.033,-0.034 0.055,-0.048 0.092,-0.067 0.174,-0.14 0.266,-0.207 0.104,-0.087 0.212,-0.158 0.31,-0.236 0.104,-0.087 0.202,-0.164 0.3,-0.241 0.12,-0.091 0.249,-0.177 0.373,-0.253 0.218,-0.168 0.449,-0.315 0.685,-0.446 l 65.233,-37.562 21.282,12.287 -0.009,19.161 c 0.1,-0.103 0.205,-0.216 0.304,-0.319 1.802,-1.94 3.36,-3.62 5.89,-5.247 l 0.038,-0.019 0.033,-0.034 0.081,-0.047 c 0.233,-0.173 0.455,-0.325 0.638,-0.434 1.601,-0.92 2.99,-0.827 4.095,-0.148 l 21.212,12.247 c 0.11,0.064 0.22,0.127 0.319,0.211 0.054,0.045 0.109,0.09 0.173,0.14 0.671,0.574 1.168,1.45 1.447,2.586 0.058,0.247 0.104,0.514 0.144,0.792 0.059,0.408 0.088,0.866 0.086,1.333 0.002,2.22 -0.65,4.69 -1.833,6.948 -1.189,2.268 -2.763,4.045 -4.429,5.008 -0.22,0.127 -0.445,0.238 -0.791,0.398 l -0.048,0.013 -0.043,0.029 c -2.445,1.248 -3.997,1.368 -5.8,1.503 -2.251,0.171 -4.809,0.365 -8.887,2.729 -1.198,0.685 -2.291,1.444 -3.354,2.314 l -0.12,0.091 c -0.492,0.411 -0.963,0.834 -1.377,1.25 l -0.066,0.069 -0.027,0.024 c -0.965,0.953 -1.837,2 -2.627,3.161 l -0.017,0.03 c -0.335,0.488 -0.656,0.998 -0.97,1.565 l -0.156,0.271 -0.031,0.076 c -0.256,0.467 -0.498,0.955 -0.724,1.44 l -0.041,0.07 c -0.048,0.106 -0.102,0.222 -0.145,0.344 -0.228,0.51 -0.441,1.042 -0.635,1.585 -0.036,0.086 -0.067,0.162 -0.099,0.264 -0.235,0.639 -0.441,1.296 -0.613,1.918 -0.02,0.082 -0.041,0.163 -0.054,0.209 -0.148,0.556 -0.285,1.119 -0.408,1.702 -0.041,0.163 -0.078,0.343 -0.109,0.512 l -0.029,0.143 c -0.082,0.42 -0.155,0.846 -0.233,1.283 -0.041,0.257 -0.089,0.524 -0.12,0.786 -0.055,0.396 -0.116,0.802 -0.172,1.224 l -0.022,0.201 c -0.023,0.201 -0.051,0.412 -0.069,0.629 -0.046,0.428 -0.083,0.861 -0.119,1.295 l -0.014,0.232 c -0.025,0.159 -0.034,0.314 -0.049,0.479 l -0.005,0.077 0.001,0.068 -0.225,7.034 -0.003,0.052 0.003,0.042 -0.002,22.922 -6.039,3.491 -5.673,3.274 -5.49,3.166 c -3.815,2.208 -6.47,3.335 -8.09,3.456 -0.141,0.012 -0.26,0.01 -0.379,0.008 -0.342,-0.01 -0.633,-0.085 -0.889,-0.219 l 0.004,0.016 c -0.01,-0.006 -0.01,-0.006 -0.02,-0.012 -0.842,-0.486 -1.092,-1.86 -1.094,-4.842 0.008,-3.765 0.631,-6.372 1.367,-9.382 0.258,-1.094 0.508,-2.153 0.731,-3.187 0.081,-0.395 0.167,-0.799 0.244,-1.209 0.071,-0.4 0.147,-0.811 0.224,-1.221 0.114,-0.683 0.207,-1.377 0.297,-2.088 l 0.019,-0.149 c 0.025,-0.159 0.046,-0.334 0.061,-0.499 0.109,-1.046 0.19,-2.042 0.225,-3.051 0.006,-0.103 0.008,-0.223 0.014,-0.326 l 0.005,-0.077 0.003,-0.145 c 0.029,-0.398 0.055,-0.837 0.052,-1.293 0.007,-4.688 -1.359,-8.296 -3.854,-10.178 -2.486,-1.876 -5.788,-1.805 -9.302,0.23 -4.249,2.452 -8.033,7.338 -10.421,12.91 -0.492,1.106 -0.917,2.237 -1.271,3.383 -0.127,0.381 -0.243,0.768 -0.344,1.151 -0.131,0.459 -0.241,0.904 -0.346,1.364 -0.031,0.076 -0.051,0.158 -0.061,0.245 -0.104,0.435 -0.193,0.891 -0.261,1.333 -0.177,0.954 -0.301,1.911 -0.369,2.861 -0.033,0.288 -0.05,0.573 -0.047,0.868 -0.02,0.336 -0.03,0.678 -0.035,1.009 0.006,0.591 0.026,1.205 0.07,1.684 0.179,4.528 1.047,7.1 1.812,9.386 0.516,1.514 0.991,2.938 1.223,5.036 l 0.019,0.198 0.017,0.063 0.005,0.083 c 0.001,0.067 0.002,0.135 0.013,0.208 0.054,0.74 0.088,1.468 0.089,2.23 0,4.932 -0.002,7.644 -10.473,13.695 z" />
				<path
   id="XMLID_14908_"
   d="m 258.547,160.683 21.21,12.245 c -1.103,-0.637 -2.542,-0.579 -4.102,0.331 -0.188,0.102 -0.411,0.264 -0.646,0.419 l -0.073,0.071 -0.045,0.022 -0.033,0.029 c -2.524,1.629 -4.085,3.297 -5.889,5.246 -2.252,2.417 -4.805,5.16 -8.885,7.523 -0.143,0.079 -0.278,0.146 -0.421,0.225 -0.045,0.023 -0.11,0.05 -0.162,0.084 l -0.117,0.062 c -0.324,0.169 -0.635,0.344 -0.926,0.484 -0.2,0.095 -0.386,0.165 -0.56,0.242 l -0.186,0.07 -0.116,0.062 c -0.231,0.093 -0.482,0.191 -0.699,0.259 -0.212,0.088 -0.422,0.144 -0.633,0.2 l -0.083,0.033 c -0.242,0.055 -0.49,0.121 -0.713,0.171 -0.242,0.054 -0.462,0.073 -0.689,0.103 -0.221,0.018 -0.441,0.036 -0.655,0.042 -0.214,0.006 -0.42,0 -0.62,-0.018 -0.199,-0.018 -0.397,-0.068 -0.59,-0.098 -0.186,-0.042 -0.383,-0.092 -0.555,-0.159 -0.179,-0.055 -0.348,-0.153 -0.513,-0.231 l -0.092,-0.037 c -0.145,-0.084 -0.298,-0.156 -0.424,-0.245 -0.138,-0.096 -0.27,-0.204 -0.382,-0.318 l -0.078,-0.061 -0.083,-0.08 c -0.107,-0.094 -0.227,-0.195 -0.339,-0.309 -0.123,-0.152 -0.245,-0.303 -0.361,-0.467 l -0.057,-0.097 c -0.214,-0.301 -0.419,-0.646 -0.605,-0.996 l -0.055,-0.129 c -0.079,-0.143 -0.164,-0.304 -0.229,-0.471 -0.077,-0.174 -0.153,-0.379 -0.228,-0.584 l -0.036,-0.134 -0.043,-0.122 c -0.058,-0.179 -0.123,-0.346 -0.187,-0.544 -0.079,-0.255 -0.143,-0.535 -0.208,-0.815 -0.054,-0.242 -0.128,-0.478 -0.175,-0.732 -0.058,-0.292 -0.121,-0.603 -0.164,-0.919 -0.047,-0.254 -0.088,-0.519 -0.128,-0.785 -0.037,-0.328 -0.086,-0.663 -0.127,-1.011 -0.028,-0.259 -0.055,-0.549 -0.088,-0.827 -0.035,-0.359 -0.063,-0.731 -0.084,-1.115 -0.025,-0.208 -0.036,-0.441 -0.047,-0.674 l -0.01,-0.151 -0.01,-0.151 c -0.023,-0.353 -0.039,-0.717 -0.059,-1.101 l -0.001,-0.081 0.002,-0.031 -0.01,-0.038 -0.067,-3.998 -0.003,-0.163 -0.006,-0.214 0.006,-3.762 c 0.094,-0.107 0.201,-0.207 0.295,-0.315 1.804,-1.948 3.372,-3.628 5.889,-5.246 l 0.033,-0.029 0.052,-0.035 0.078,-0.052 c 0.223,-0.162 0.446,-0.324 0.634,-0.426 1.598,-0.916 2.985,-0.827 4.098,-0.152 z"
   style="fill:#263238;fill-opacity:1" />
				<path
   id="XMLID_15049_"
   style="fill:#455a64"
   d="m 174.801,194.168 -21.282,-12.287 c 0.059,-0.126 0.113,-0.242 0.182,-0.362 0.09,-0.202 0.19,-0.398 0.294,-0.579 0.14,-0.266 0.281,-0.533 0.431,-0.794 0.18,-0.311 0.359,-0.622 0.558,-0.921 0.064,-0.11 0.127,-0.221 0.201,-0.325 0.178,-0.285 0.372,-0.574 0.569,-0.848 0.012,-0.02 0.033,-0.034 0.039,-0.044 0.062,-0.084 0.124,-0.169 0.186,-0.253 0.103,-0.155 0.215,-0.303 0.338,-0.446 0.142,-0.199 0.293,-0.392 0.449,-0.569 0.185,-0.228 0.37,-0.455 0.575,-0.671 0.078,-0.089 0.16,-0.162 0.238,-0.25 0.051,-0.064 0.111,-0.123 0.172,-0.182 0.105,-0.113 0.205,-0.216 0.314,-0.313 -0.004,-0.016 0.006,-0.01 0.006,-0.01 0.127,-0.127 0.248,-0.244 0.369,-0.362 0.033,-0.034 0.066,-0.069 0.109,-0.097 0.133,-0.137 0.27,-0.259 0.417,-0.374 0.012,-0.02 0.033,-0.034 0.055,-0.048 0.092,-0.067 0.174,-0.14 0.266,-0.207 0.192,-0.17 0.404,-0.329 0.609,-0.477 0.12,-0.091 0.249,-0.177 0.373,-0.253 0.218,-0.168 0.449,-0.315 0.685,-0.446 l 65.223,-37.567 21.282,12.287 -28.671,16.554 -36.638,21.164 c -0.279,0.16 -0.554,0.335 -0.819,0.516 -0.249,0.177 -0.498,0.354 -0.733,0.552 -0.135,0.096 -0.261,0.197 -0.376,0.304 -0.245,0.193 -0.481,0.417 -0.718,0.641 -0.285,0.263 -0.557,0.547 -0.828,0.832 -0.583,0.639 -1.143,1.332 -1.665,2.073 -0.204,0.283 -0.407,0.567 -0.591,0.862 -0.592,0.913 -1.143,1.891 -1.619,2.9 z" />
			</g>
		</g>
	</g>
	<g
   id="XMLID_14930_">
		<path
   id="XMLID_14932_"
   style="fill:#ffa8a7"
   d="m 143.447,215.718 c 1.04,0.073 2.064,-0.269 2.889,-0.905 2.213,-1.709 3.863,-1.572 6.236,-2.598 1.857,-0.803 2.612,-1.793 2.985,-1.459 0.479,0.429 1.041,1.701 -0.043,3.126 -0.546,0.717 -1.151,1.161 -2.465,2.156 0,0 2.772,-0.059 6.443,-1.316 4.975,-1.703 7.373,-0.972 5.1,5.343 -1.424,3.957 -5.021,6.204 -14.81,5.956 -2.82,-0.071 -7.268,-0.762 -10.785,-1.406 -9.708,-1.914 -29.258,-4.843 -32.668,-9.434 -9.651,-12.993 -18.494,-23.72 -19.715,-33.421 -1.025,-8.144 4.007,-12.692 8.627,-12.686 2.633,2.766 4.233,6.064 6.646,13.838 0,0 12.567,22.491 13.828,24.125 3.165,1.732 25.671,8.358 27.732,8.681 z" />
	</g>
	<g
   id="XMLID_15027_">
		<g
   id="XMLID_15338_">
			<path
   id="XMLID_15339_"
   style="fill:#ffa8a7"
   d="m 324.823,132.395 c 1.683,1.034 3.495,1.43 5.749,3.076 1.985,1.449 2.829,2.012 5.054,2.551 2.412,0.585 21.38,-5.824 24.898,-8.534 7.141,-5.503 13.318,-15.874 16.755,-19.809 2.831,-3.241 6.045,-8.119 9.533,-8.141 5.769,1.746 4.463,10.326 -0.364,18.053 -3.99,6.387 -11.576,14.461 -20.162,20.092 -4.161,2.729 -23.324,7.676 -29.692,8.092 -1.937,0.127 -3.369,0.561 -7.058,1.085 -1.488,0.211 -3.113,0.489 -4.593,0.246 -1.881,-0.309 -3.735,-0.832 -5.454,-1.664 -2.165,-1.048 -4.114,-2.603 -5.434,-4.613 -0.727,-1.106 -1.262,-2.357 -1.408,-3.672 -0.147,-1.315 0.116,-2.697 0.862,-3.79 0.151,-0.222 0.329,-0.437 0.571,-0.555 0.436,-0.212 0.952,-0.057 1.41,0.101 2.558,0.887 5.185,2.225 7.811,2.835 2.22,0.515 3.858,0.572 3.643,0.17 -0.216,-0.402 -1.541,-0.614 -3.054,-1.903 -1.445,-1.231 -2.13,-3.299 -1.376,-4.056 0.754,-0.756 0.626,-0.598 2.309,0.436 z" />
		</g>
		<g
   id="XMLID_15292_">
			<g
   id="XMLID_15296_">
				<path
   id="XMLID_15313_"
   style="fill:#e0e0e0"
   d="m 387.178,99.513 c 4.261,2.089 5.99,5.265 4.097,12.35 -1.699,6.361 -8.22,17.206 -13.349,22.515 0,0 -8.776,-4.158 -13.449,-9.564 4.628,-7.077 6.851,-11.239 11.195,-17.225 4.345,-5.985 8.904,-8.792 11.506,-8.076 z" />
			</g>
		</g>
	</g>
</g>
</svg>
